<mxfile host="app.diagrams.net" agent="Mozilla/5.0 (Windows NT 10.0; Win64; x64) AppleWebKit/537.36 (KHTML, like Gecko) Chrome/126.0.0.0 Safari/537.36" version="24.7.17">
  <diagram name="第 1 页" id="832QKGQJeXwiSyzl61Mk">
    <mxGraphModel dx="1147" dy="730" grid="1" gridSize="10" guides="1" tooltips="1" connect="1" arrows="1" fold="1" page="1" pageScale="1" pageWidth="827" pageHeight="1169" math="0" shadow="0">
      <root>
        <mxCell id="0" />
        <mxCell id="1" parent="0" />
        <mxCell id="TzDmx2nd5fRmSMZ_yycr-1" value="Sass添加图片流分析任务" style="ellipse;whiteSpace=wrap;html=1;" vertex="1" parent="1">
          <mxGeometry x="354" y="20" width="116" height="80" as="geometry" />
        </mxCell>
        <mxCell id="TzDmx2nd5fRmSMZ_yycr-2" value="参数校验" style="rhombus;whiteSpace=wrap;html=1;" vertex="1" parent="1">
          <mxGeometry x="372" y="140" width="80" height="80" as="geometry" />
        </mxCell>
        <mxCell id="TzDmx2nd5fRmSMZ_yycr-3" value="参数校验主要校验优先级和延迟时间&lt;div&gt;1：优先级不为null且小于99，最大延迟时间需要大于0&lt;/div&gt;&lt;div&gt;2：优先级为null或为默认优先级99，最大延迟时间需要为null或为默认值-1&lt;/div&gt;&lt;div&gt;&lt;br&gt;&lt;/div&gt;&lt;div&gt;算法信息不能为空&lt;/div&gt;" style="whiteSpace=wrap;html=1;" vertex="1" parent="1">
          <mxGeometry x="80" y="130" width="210" height="125" as="geometry" />
        </mxCell>
        <mxCell id="TzDmx2nd5fRmSMZ_yycr-4" value="抛出异常" style="ellipse;whiteSpace=wrap;html=1;" vertex="1" parent="1">
          <mxGeometry x="530" y="155" width="90" height="50" as="geometry" />
        </mxCell>
        <mxCell id="TzDmx2nd5fRmSMZ_yycr-5" value="根据SassTaskId判断该任务是否已存在" style="rounded=1;whiteSpace=wrap;html=1;" vertex="1" parent="1">
          <mxGeometry x="354" y="260" width="120" height="60" as="geometry" />
        </mxCell>
        <mxCell id="TzDmx2nd5fRmSMZ_yycr-6" value="SassTaskId表示sass侧生成的任务唯一Id，添加的任务以该Id写入到数据库" style="whiteSpace=wrap;html=1;" vertex="1" parent="1">
          <mxGeometry x="50" y="310" width="120" height="100" as="geometry" />
        </mxCell>
        <mxCell id="TzDmx2nd5fRmSMZ_yycr-7" value="sassTaskId已存在" style="rhombus;whiteSpace=wrap;html=1;" vertex="1" parent="1">
          <mxGeometry x="372" y="350" width="80" height="80" as="geometry" />
        </mxCell>
        <mxCell id="TzDmx2nd5fRmSMZ_yycr-8" value="通道Id相同" style="rhombus;whiteSpace=wrap;html=1;" vertex="1" parent="1">
          <mxGeometry x="510" y="350" width="80" height="80" as="geometry" />
        </mxCell>
        <mxCell id="TzDmx2nd5fRmSMZ_yycr-9" value="抛出异常" style="ellipse;whiteSpace=wrap;html=1;" vertex="1" parent="1">
          <mxGeometry x="630" y="365" width="90" height="50" as="geometry" />
        </mxCell>
        <mxCell id="TzDmx2nd5fRmSMZ_yycr-11" value="同一个任务，返回该任务" style="ellipse;whiteSpace=wrap;html=1;" vertex="1" parent="1">
          <mxGeometry x="505" y="470" width="90" height="50" as="geometry" />
        </mxCell>
        <mxCell id="TzDmx2nd5fRmSMZ_yycr-12" value="一个任务对应一个通道，&lt;div&gt;一个通道可对应多个任务&lt;/div&gt;&lt;div&gt;一个任务可对应多个算法&lt;/div&gt;" style="whiteSpace=wrap;html=1;" vertex="1" parent="1">
          <mxGeometry x="35" y="460" width="150" height="60" as="geometry" />
        </mxCell>
        <mxCell id="TzDmx2nd5fRmSMZ_yycr-13" value="优先级&amp;lt;99" style="rhombus;whiteSpace=wrap;html=1;" vertex="1" parent="1">
          <mxGeometry x="372" y="480" width="80" height="80" as="geometry" />
        </mxCell>
        <mxCell id="TzDmx2nd5fRmSMZ_yycr-15" value="流控判断，任务数量是否最大闲时任务数50" style="rhombus;whiteSpace=wrap;html=1;" vertex="1" parent="1">
          <mxGeometry x="368" y="600" width="88" height="90" as="geometry" />
        </mxCell>
        <mxCell id="TzDmx2nd5fRmSMZ_yycr-16" value="抛出异常" style="ellipse;whiteSpace=wrap;html=1;" vertex="1" parent="1">
          <mxGeometry x="520" y="620" width="90" height="50" as="geometry" />
        </mxCell>
        <mxCell id="TzDmx2nd5fRmSMZ_yycr-17" value="构建图片流任务上下文context" style="rounded=1;whiteSpace=wrap;html=1;" vertex="1" parent="1">
          <mxGeometry x="352" y="730" width="120" height="60" as="geometry" />
        </mxCell>
        <mxCell id="TzDmx2nd5fRmSMZ_yycr-18" value="" style="endArrow=none;dashed=1;html=1;rounded=0;" edge="1" parent="1">
          <mxGeometry width="50" height="50" relative="1" as="geometry">
            <mxPoint x="185" y="820" as="sourcePoint" />
            <mxPoint x="675" y="820" as="targetPoint" />
          </mxGeometry>
        </mxCell>
        <mxCell id="TzDmx2nd5fRmSMZ_yycr-20" value="创建图片流任务" style="edgeLabel;html=1;align=center;verticalAlign=middle;resizable=0;points=[];" vertex="1" connectable="0" parent="TzDmx2nd5fRmSMZ_yycr-18">
          <mxGeometry x="0.0531" y="1" relative="1" as="geometry">
            <mxPoint x="-29" as="offset" />
          </mxGeometry>
        </mxCell>
        <mxCell id="TzDmx2nd5fRmSMZ_yycr-21" value="获取图片流算子列表" style="rounded=1;whiteSpace=wrap;html=1;" vertex="1" parent="1">
          <mxGeometry x="352" y="850" width="120" height="40" as="geometry" />
        </mxCell>
        <mxCell id="TzDmx2nd5fRmSMZ_yycr-22" value="算子信息是服务启动后会向注册中心订阅算子信息" style="rounded=0;whiteSpace=wrap;html=1;" vertex="1" parent="1">
          <mxGeometry x="65" y="860" width="120" height="60" as="geometry" />
        </mxCell>
        <mxCell id="TzDmx2nd5fRmSMZ_yycr-24" value="筛选出已经初始化的算子" style="rounded=1;whiteSpace=wrap;html=1;" vertex="1" parent="1">
          <mxGeometry x="337" y="920" width="150" height="40" as="geometry" />
        </mxCell>
        <mxCell id="TzDmx2nd5fRmSMZ_yycr-25" value="算子列表为空且任务优先级为99" style="rhombus;whiteSpace=wrap;html=1;" vertex="1" parent="1">
          <mxGeometry x="368" y="990" width="80" height="80" as="geometry" />
        </mxCell>
        <mxCell id="TzDmx2nd5fRmSMZ_yycr-26" value="抛出异常" style="ellipse;whiteSpace=wrap;html=1;" vertex="1" parent="1">
          <mxGeometry x="520" y="1007.5" width="90" height="45" as="geometry" />
        </mxCell>
        <mxCell id="TzDmx2nd5fRmSMZ_yycr-27" value="根据参数中算法列表向中台请求获取算法包信息" style="rounded=1;whiteSpace=wrap;html=1;" vertex="1" parent="1">
          <mxGeometry x="334" y="1109" width="140" height="60" as="geometry" />
        </mxCell>
        <mxCell id="TzDmx2nd5fRmSMZ_yycr-28" value="算法包不存在或数量不匹配" style="rhombus;whiteSpace=wrap;html=1;" vertex="1" parent="1">
          <mxGeometry x="368" y="1210" width="80" height="80" as="geometry" />
        </mxCell>
        <mxCell id="TzDmx2nd5fRmSMZ_yycr-29" value="抛出异常" style="ellipse;whiteSpace=wrap;html=1;" vertex="1" parent="1">
          <mxGeometry x="520" y="1227.5" width="90" height="45" as="geometry" />
        </mxCell>
        <mxCell id="TzDmx2nd5fRmSMZ_yycr-30" value="构建算法-架构-算法包列表映射关系的Map" style="rounded=1;whiteSpace=wrap;html=1;" vertex="1" parent="1">
          <mxGeometry x="337" y="1330" width="120" height="60" as="geometry" />
        </mxCell>
        <mxCell id="TzDmx2nd5fRmSMZ_yycr-60" value="" style="shape=image;imageAspect=0;aspect=fixed;verticalLabelPosition=bottom;verticalAlign=top;image=data:image/png,iVBORw0KGgoAAAANSUhEUgAAARoAAAH+CAIAAADMBFZ5AAAACXBIWXMAAA7EAAAOxAGVKw4bAAAAEXRFWHRTb2Z0d2FyZQBTbmlwYXN0ZV0Xzt0AACAASURBVHic7L3PkyPZdh52LqqrveTKK1swusjmQ3aEN0CH9CwHQQzsmAqTD9lVjNDGGEEaOGIqHBIHWSNZihpT6hwrYhCS6EHWWFrUizA6iGgsbNKvMABJqV5IaChF8/GRnVho0Yn3mqoG4fBO/gPUP3C9uJmJ/HFv/s5Eoju/VfetxLnn3sybefPk+c6HisUihAJCCAAwxuF+nhqi+5nESPdl9nKY4XnWClHsmv+RTUT3M4mR7svs5TDDz1nzWE6cMF5okPgkzz1CHM9znFcXiBPGCXsSCKnNDwBwHM/zvOcU5dghPJaTKp1UKpVqa7i2thvPu9i2K+Xjjnh2Px5bW0T3090Ca35i94qXFqNeo9E4ul8O0lOO+ODnrN2Jbj0WYFU6qdgbES8pIojV80nYvhAvKWJN/996PRycSJPAvkXqne5/IJsIcUclkAfnwiR/19olPM9ayHenKECI4zjvfV18kMVqtVKpVFuDVVscC1xa/eb44LBdTojjBUl7ExhLgvdrDDJeHMaCIC3G2k8Q4kx2tnt9hHhpIQnC+Frp9Xq9kdLnteN5yfH6QWwrYg2gJioK+eO272bf3IF+/FiSxovFWBKIX5LAWYaA1cnVcF0s3Tf852l+blsXY4nnTP6Y3OO346VPDtt/qv0c7we2y6l53IDZRaVSqVZbc2iP+k33Xzb7o/ZKbFWr1dYA6jVLOwxa1Wq1Jc5LYq9r3uzX6qXBRfX05OSk2roiWyCMJ0KlUq2Ksuk4rEonlUpVlI1nS0UwNmm1TmN2Ua1Wqy1xVRPPtn6urk5bQ6i1S4NqVZRr9WPLewbi+LN6UZ5NDT9F4me1ZfiJEH8mluZitVKpVKsXs8ZxuAADy/+w9u+XiuvVyxCO5EgV2+U0kQRpogIAxurlTIbSkdvdF/GN2np4NVUxxurkciCz2ov1Y5Od9fxqqpJVpKphfdaMYKxOLX6ubpewvF2B/cLTng/KqAODFnn9sPiJVaufxfpRk+MQxupEkEK/trERwD7iBGk8VhSxNLyQ1PzFKeswbfZ4YazvQkyv7wyUj0qwul36bo8TQe1rz4fWEGrimfY0KB+VoNgeKbbxYjw5bw1X9U5vpJA9b7yuB7WPVUk4Oam2htDu2fauOTIIbTkhxPfF9mrQqlQqFW2X4orl7QpKR86gLas9A1heXgzXtQ7ZfC5vV8Y2jOBE0h+bknByclKptMRVrX0W+9ekMPaXN/PtS1+O7MIc2VuvYAkAiOO7HevTaXm7glrD9DKF8WQmF9tnTQ4h8/HO9vX8RvW7X3Ksw5erdXyLU9vUtc94hDCezOSa2G+SDR7HC5LAA9lcCbRPpcvbFWhL0c/8sPxn2s/xXkBbThhProaruqgsFgul17idW55OGE/ORbkkKovFwgg0T89bw5I4UhSl1wDT8dPz1hA6I0VRRmJ9JV5c+tqZYTw5F1f1kaULrEoDGbQtmTmyFxrTmayviul5S4TOSFEWi0WvAbObKenxCho9RVksFqMODFvnRrzkXJShPfI/P1T/WfZzvB9AoVNgLVZ4SemsWqeXvh9EOQIAIa57PSoNqvln3Iwj/GdcxAvkswlCXMBNXY5gwFi9GcglUSEfBHftTg4mwj+dEOKa/Z5YKwLAWhYvzqf5csrxgcPvctoXzk86NrPJVsomsyudXjJi09dmzz8/xz9hISLnh0rocNqMTuig2NwRW8mdoJFNZlc6vWTHZswpsOEIC2GQDKEjs8gJGnsBXwQNjHHsD9OINqmEDmj2FRG+evjFd5tNOK+ohA6bn0nMhodXPgga0b1KZ1wZvJZitOn36YQxjn2WfdoMSuiI7Ked0OH0k+p56sQTO6KfoyTOcjq9ZMRmePog4vjuWaetRfaGF+ceH53Ix5N2EQDWw+GqXde+UyHEdfu9tiNCiBDfVxqrYaneBlhDsbgiPDyE+L72BJENZh7iBM02gKgoIgDI4jYJvdkfm0KQExUjTrge1Vcy1GogD+eldrsI8rB1fmlyGKuTq2FnVLoPoLqMl+kn7XhWv3l66/sB+tMJIeT5BpYYocOcFRqG0PHVw4cOQsezEIQOr/GaszQofrocv7o6/cTRr+uc+yJoOC34OY9BbUZHNv2MZaSU5eQzphE7oQOW02+fyMX6xw8KhlfBCB1G/6YhAMB6/sPpEsA3oUM3wvFn7e1VbIwXYPntMxlK99z9ZB+/evUztHy1gvXqz72ihf4JGklEINOJmGXBz7hGGmGzxwvXnfb2q9V65XZ0+agEqxmD0EFpjxOrV8Hs17TtIqzXQ/FE0pZHsPEGP54KrErCiYQ44XrUE25O8z1hxkFZTn5iGhqhQ2ydTFTQcvZc+1nerqB+VCavIfR2jDHSHQg6DN3z7RBYLT4gO4ul2MZbeCQ9/zTA/NiOp/7Dbc6XN/N1W3+Jo8NpIZuxvmz6GddI6e9O/mIa8RM6Pv80BkLHve9FKhvExna8n3/qRa/0Ot7pURJxuWzG+rLpZywjDfkZ90MhdJi6cxlv9ONzvB/YTc4eIXR88hvfqql86Nh3ZIqgkc18RSd2ksEYc86emxE7oePH+nebnHHggewQNPaluvquYn2+nk5mi6GXu43Q8eUXv6863shzZByxXAkpILqf4Sy8bwSNHEljX85adjd7kFiEp9y9fi8VOtJU1kgZsVwJKczPTmJ9O6hRbsb7SuhIb1z7ifd1fna8nFIDVqWTimD/OMtLsdwdOWtx94jWEgJCnDAeCxwyP4FJfXjjS4Nn7fVd+bkveA+XU8pECU4Yj+owaFUrlUr1YlY69kgFziCKoapz7pyQkkGkt5zeS4UOhPizNgwvzicqyX+dCF76Uax5YClruChuIOPhEumalmVZL45rMR5gnl0UTIKe971Gesvp/VToCF6TnToPLGWNuBQ93DG7GoJFmQEg+DwDg/AS9LzvNdJbTu+vQkcwsOeBpazBVNwgdwqjuro7MFalkxNJxZTXyOXNHNqm+0a4eabPT6Dz7uFn5hGeoBEUe0ToSFQBhDoPGE/OW0f9XqfXFouwlocXgqS6tMeN5eVAVjrd8kBviG+eYyGq7AtSejq9twodAf1xmQeWsoa74gZCMQUDpldDaJ819P/GNM+Bz/ueI83I3nuo0IHx5GoI7V5fj1jwRImDNS4AoM4DS1nDXXEDIb6vjIygSxRgrN7M17VaLPNsQ4Dzvu9IaTm9x4QOVTppzaEz0oa2upm6jIs1D0zlDg/FjZer9Xotz2J5wVgab6gAEHaebQhx3vca8ShoJI1coSPHXsDv0ymJ6jMePYZS6MhIRZud9JLbTNqmZy++Intm7ge2kpSMlvgxvZn1ewtRL4/nY7MR3as0xpVML7nNpG366SUk3ymbvJddsVyy0EtuM2mbfnrxtdlzL8ET3FVvhEvgj+5V0uNKrhebTZ+ElEA2Y0FEm9RxpeOnn17C852SYEAZCJ3An5GKNjvpxWIzJkJKOpWMAoAxrnT89OzlPcwo9wkXIkD6hIttmu5isViMx0LUMkwRM3TM/oz1PGB/v4qBUuFiJ3rmUaIEkAjauAFjKcbxRmJ/EtHC6DadhAubhViICTSvtOrqhnJHHDajWNCSgy8G0BldJ3pbycJ5D9eLDSGXkznK4dsPvq/0HYn93S2VjRxy3TXV/qaa2lIWzMQBACgUHvUVxWwhuJ92wsX55dQwziCA0IkM7oQLRVEU5Vp69EDvdztRWJ1cDdfF0n338bIILIXCIychheWndofWO1Cu+zxnv2LUiXAx3GbIUv1xIby4+G+0X/e72u3VzQ6FaGOMS1EURVHG0iNtEh4I10qf5+1Emyjwcy2lvNmr1UtPSGL/w09+GO6R3eyPREIcqLYcxIHI8CBc0JQyaEQGD8LFVw+r1erDh18+++hj52YDcfxZvSjPpu7jZRFYqIQUlp9kUISQ8vDhJ1+tao8/o+T8kAw+cqVS/XEhvLj4L5bmYqtarVa/fAYfN8Hdjuu4nnzy8OHDT76alx6bx/XpR8++fPjQSbRJDqGrwAaLpeiHredXE/I1dvPiRQibFuIAVm3Egc3mu/NqtXp6+UJXH3Sx6ZMIYLVgJya4EhnYhIt7PyDt3+ntGANA7fHz54qiKKMODFqkQiVrvCwCC2v2XP3UBrXZvJg+k6F0z+X+5D7//o/X2i8uJ+QPk8vLSZhYgm5/YhsXxkCUU15sNjaiTWgCiJ/rMzxBI+jgaRc0Bmxr8bJSPipBsTZS2kaLNeGf3ks06KFnlj8UIoMn4eJrCuFCkxrghPFIPOOn5xOMmeOl9esWd3IjXGyfxtHn3+/xVn8iBPo0O9o5svxtdRu34Iinn+nxneLB8nYF8sChcGEAIa4My/CpfSylj+DHEy0ZAOB4aSSe8ZfbrFZq+9bk5cWwPup0yxNJZY0XxeenH5CLVsUYec0/rd84/HezH4edmLDrQPnydgVaoQLfxI2a2G+SBzfHC2ZCRHTCggfhYtuR9r7OIjKEI1zoPqiXA5mUQ2GNl0VgsaJ0xHn46TkhCKEHj6ReG4ZXU/CafyfhhXo8QghgOpOL7V6XzDPHCwKPXOzYx6X/KVYiSQzY8XIiKfrQHgUibojQGSnKYrHoNWBmIkTEQlhwIVwQ2CI8VCJDWMKFjulM1u8yrPGyCCzG1H3x1ar+9LmiKGPhActPV9RERVEU5etP4cknv2EotbnMP5XwYjv+2Y9/n7T//hefiKu6ONLazdPsQpxxEm1iIZLEhf0gaGQKGcxXpBJYspnBmMHZixG73uztIdLJ6/OEJ4ElmxmMGZm9hLBvoYhsIBOXgg8CS1xRzXiRidlLBvlmL0eO2JBWJaO40w1jISDkyBEv9vbdKV1FjBw5/GBf352wKp1U0uuOlxai49POetg6SaSIpC8gjt+KOSZVzjJHMOzrckoZE6FCMjF5adFZ7XIVESDEdc+OZhdVQcWI4/ujkXSbCSHqDxypbvaOulrCvJ0gYHwYNekLsQgObEWMLdHAnJDPIgiEUKxwAulMN6MvbTycMF5Igs6IYBETbAQT/4oYGKuSIBkskpmcqdK4Hy7SXE61dml2QVdksMNFOYKVqM9SvqASBOJSrMB4cjVcb/OgmmftLbWCPt7YCSaI4xu1hAur5/CHVIsqsxUZqGAqR7DsO5UvXAkFgRUrqFjezNe1Bll1zUYNtilOlPG6ExwCKWKAXqBGGXVg2Mp3ellAmsspwA0U48l5a7iqd3ojhVRsCGm/fFSCopb9pdE83eyH6Xd5M1/XOt2ysVRC+BMOeoGawao+ej+KEu870gxFlAIl0nsSGXyBTSgITaCw28Hq5UBud47Lt6Xaen61XUK08SZAMMHq5HLQaHeOucsIzJQccSDNpxMtkZ5B0PBDZKAoYjjAIhREIVBQMJ3JxfZItCXOUcYbF8HE7Kc2b6vbfC3tHPSnk06Siff0yMNVo6eIRYC1LJ5IKuG9nIuNa3G0aAOsZXEuQx2AEBmOJXIwrGUnkQHjybnYuB4pbYD1sHV6Y/HcjOl5C/q9kSISSwPC22HYp7Z7zgbGk5ks1mrywJI4ZxmvkVNH9UfHy9V6XVp5E0ywKl3d1/0EWMti63yaxFlz2kzm2oiK6F7FMi5Kzl5eWDiETU4Yj0oDo04I4oTrUYm1qdvfsWeTXpEdKsreJhllCQjx5gB5jg8WlM0e9rG9iY4ketmJTZJ/tJbFE9+h6v0dezrXRlBE9yquceUEjRw5YkPam71tKVIfqTRx9psTOnIkD7/fneJ6xDfP2qV5qyKRmo8IWZWnEozPlI87YmkwPff87rWrzUwSY08n1hfdq2yOPYSFkOqD4YAQZ1QrdNqM3kvhkfT8MXz18IuJYxZ8EjpYPiRN0Ig+dsNC4cGjb75+XCsCAKzl4ZdffKsmEOvz6aefsxzj2BO16Qc5QcMXskbQYAEh7vOvH5dWYut0+jPEff6jp0+/eVU9n+zarw8FIdUHg4IwFhRl1C5CTVQWi4Vy3eUQQlz3Wk8CwBgTBY1yAMKFYFZweP64ZlT69qm8YCdKlLtEeeGayDd4KS/ERdDAGHN8/1pRFEVxEkP8EDf0U3O/VITVTKs5/uP5GuKO9dn+EfR4P/+I7tWuqjiFVx8MBFJfvVptDdcgi9VKpVI5kV5sNjaT1v+yCReludiqViqVixkcR1JeoCtKfPoRpV/GuOIhaCDEf/Y4ADGE4QzebL6byVBqNDmEEOI+rhfXq58HtePZS6ArwXm8n5boXiVh0xNZ/ozLJlxcXBLmnDqRpFDEBD+KEjblBRbiI2gwiSGBiBvTc1LEVlGU0c6ron5oSE99MDhYBIdgTDm6n2527O0eI42DoBGKkEIBQlz3elRaXVQqlWq1NVh1Rv00dI0+EHhe8ympD8YGItzlm8DK9DOgHYoFHcZDptxs1NbzGxtBw4bl7Qrkrx4+rOownjlYlYSTk5NKpSWuau0z22YPIX8fzcrH9aI8I3XSsTo1PTlzRISfa37Xmz13BQ0HNMWErCkvBCRoPP7GIGh03QkjBAGUQYjmiPY+xjWP68X16mXIUeUIjJTUB9l23BQ0qJiet/wrLxjubTbfRVRecBkpxpOZDABUgobd/vS8JcKnT58/VxTl6480BQovZQ2/yiBk0wj10WKxMDrOeVCxwM81n+fsxYNABI0c7yt2vdl7L5ATNHIQ5FkRURGCoJHjfUW+2cuRIzbkBI0cOWJD2stJI2gEKc4YDz4wxQ3E8fntI32k+u5kJmgkYp+XFBFERlW9KIobGVTQcAFCfH8k1kAWffC7csSIPBThC/tC0AAtz0gsybIcqcJsjjBIS33QQdAg704sBY1wBA1FrAHURGX7GRcCEjRc+mWMKzYFDRflDv/KGhrm4un5zNeROWJFSsuJStDwenfaGUGD2i9jXLERNAIpd7i6pEpSzhfcDbL8GTcnaGgIqqyRY1fI8nKKh6BBRxCChgeyRNDIsVukXcnIZjPwjmZ5u4K6uxIHQgg8/fRhx2wQsavkxKWg4a7c4UdZIyN1unfSS0Zs+no6JcFu0kwtX8VI0EB/vlpD6V6Z5WckgobJpmM2IitoRCdoRD9H6XDYEryWMmBzx5s9jCdffBUjQePyiQztp5bSK0ZHEQka7qMISNDojBTN/3gJGqCHARVFrGlBTimnD6YGvzl7GXmYZsSmsyULBI18s7dzmylVMnrPbNpaMkLQ2Entnoz0khGbeVZEVOQEjRwG6Ju9vE530F6ie5XNse9q8xzdZvoWgLrZ21WVolhiU4SI8aBQiMsmtZdANp3H+/lHdK+yGevLpp9xjTTLn3FDofzxp48/+3CIGDkyBcpyiqtKUVBE75ck7pxWz7/bbOKySe3F/A+EOGE8FjhLOi/ihPFiLHDb/QPfV5R+EwA4XiK1yBXlut8se/ppStW1ZEvY2jVnuK5WXX2x0DvpulcTdLHf1aqmX/dNNnz64+4nAACUSbuiXPe7nGU+aXZc/Gf66TgvLMR1ndCfTknESThrajbiKDNF7RchjuP8MuE8o3CxwNvm8ma+LtaPjbPb/KgG8myKOOGsMbtoVSuVSrU1L4kjIxudZbPZH7Vh3qpWq60BtLfHO9sxxpsX0kllC1EGz8/T/u3H1U5Gam1/ahSrZdkJ6n9QxHKdpEXQ4ITeaPtRH3HC9UgrdMoiLCDESwtJEMbXSq/X6xk5ASwiQ4xEjMCECAcwVsl60iyQ3NgpYFUShImqamVfB7JHKVo9D/CSpNIa2eusdtucd6xlaaPb31V7UP93Bb/LKWpFcpJ3rY+UlP6dAiCEqIQFHbV6aXBRPT05Oam2riYYuxAZEiVihBxxsUTe4spHJXDkNGjcZPd8W2uqLikFzSHEbDf/9LhelAeS6nrHDWq/fFSC1aufoUDHx9Ae1P84wichrvmUcvbI3dq4A521i/Kz34ft3YVKWACDKwEAWDWSSZlEBprnYYgYgQgRGKvSyYmkEkqXsPVHv4MgxOl3Dwua/VF7JQq+vlaVyasYAIC+RF3bg35Z9mtfn6Gg/sTV7td/hBDG6uXp6eUS7OfFH8Jd8+l9xl1eDmSlI3DTy/uN2nr4CTnR5XslKNZGSts4br1yMYLx5Lx11O91em2xCGt5eCG488zLLsUp4iB6sEHuIKNGE14e1YvywHph89JYLA1bpz4v96V0UpEAEA9gqTnOagdoNmrrYctvnkZQ+8vL06qEsf/jY2oP6n/aSEl9EPQkbkNo4gUJvi1frQz+LIHXM8FdacKO4EoZBH4VK1xBOm/eL9nq7vPSWCzNW6c+qodb/SdbGxVjZrvuvF8Rg4D2sXq7gtK9snYlePsTV3tA/2OJEoewkGrO3nQmF+tnhmwL1tTyKIQFFtyJDDqiKmUEUKxwx3QmF+sdU6cIcby0YK0lhHhpvFiY4jG6/0T4dLt/Y7VrKB/Xi5QgRHT7Wvtnnwc7PnJ7UP9hRxmM6X7Gnc7kYs0WbaISFljwIjLERcQIQIhw8xZPZnKxaL6yy8edGkCxPdK/Do1tn1aKAKUjc8OUSGIoijLqwLBlvGux2kGrWMEIQkS2v6v2oP7vBHlR5WwBIQ7jBKuOJW0/aWTc/3w55cgRG967nL0cOXaHfDnlyBEb9mw5sdIZOUFPPMpLI+TYHfZsObGgSieVSqXaGq535ECuWJED3pvltFsQxQrxQxK8yUFFvpyiYqtYsWtPcuwc6S0nKhHDTSmD403ECgtX4qjbdypTBOoXcsWKHAkgveXEJmIwlDKOGzC7qFQq1WprDu2RwS9jKFME6jdXrMiRBMLznQKxQVyJGHSixEQSpIkKpAi4hUDBIlxsHfPXL53ogRACmCatWBGVP5bb3IVNz158ETTM3A+d0G9v8UD5iE3EoBMlEC9cd9rbnA2v42HLxjF5xeiXRfQIPK5QSKKX3GbSNv30khbfiaEcwVrpCPF9sb0SWycTFQAQLykd4480ZYqA/YIvxQo111PKEQgh+U5B2SAs5QhXrFewBHAqazAJF1i9XUHto6bZvWCKFfp9iP/m+dMYCBoMpFBfKbcZu00/vYTnOwVlgwQjYuDJ1XBVFxWasoZFmcKs+ozx5FyUS4+fm4kPQRUrMMYY/zxpxYrd1FfKbUaz6dlLnlGeI0dsCB8oDxpL8RMniR6fScdmdGTTzyRGmk6/Scynn15sCLmczFGOcMf7+Ud0r5KwGR3Z9DOJkabTbxLz6acXJ/Ikoxw5YkPI5RQ8sucdJ0mi+kxcNrnutaJVd6BHGohyh//Kz+T4sqklFj93a2FX/SZx3v304kT4p1PQWIqfOEkS1WdisfnCkwBSPu4EySjH37MrfSQx9vQt7KrfJM67n15sSHWzh3gpfXpfICWF0AhaapR6PHV+0vE/RyzI353CYFcRsKDIZqxvX2YvBNJT0BgvFopYA+1b52Ih8fqf6EQMcjfWatEJkpkuEV3hwnanR7xm311ZQ+/dEuGhKncQfSdJGi8WY0kg45CI3BP7ePr8hEY2Y327ih+mg5SWE1alk0qlKspglFAWNFIDi4hBKuJruj31Gtt27AimrMFS7gCA1dVpawi1dmlQrYpyjcg9UY93mZ8ce4TdK7dPJIH8gxAx2p0jDqGlXrJexRjUyeWg0d6mwJIr0u/VRhQuAABAOqn4+YUh26FOZ7LYOeIQMufC+o4arW6XsLy/IkXoQ/Peg/tv/BCTJ0CUiFlEC+nYzA52v5zoRAw35Yuk4a2ssS+XQnQ/kxjpvsxeCOw4FKERMQYtop6x3QF5KV/EonCRI0e8SHc5vVytKYuEQsRwKl+YfxCDwsXydgW1DiG6O+y7/4qtFhlU+cZxPH1+cuwNUl1ORA22PdpGrlyIGNPz1rAkjhRF6TVgbnvPj6pwQagc0B7RCCAevyqJW3kO658syh0+TNmPd85Pjv3CfhA0EC8pnZUvfbEcOXaH7H7GRbxA6nUF0NLLkWOn2H1kj4npzazfW4hFAFjLPmXOcuTYJfZjs5cjx17g4Bd+4RfC/RJxHP9X/9NC4f/7D/8hXpdy5NhXRHl3Om40znojxU8gK0eODwFRN3ucMB6VBnmCWY4ckOXIXo4cewf6ckqHkbIvXJrcZtK9REdGmF2U5RSIkULSbkIk++wLlya36f6PLCA7zK7Im73plSjXREUZj3PedY4PHZTPuMEYKc0zsbYeihc3L5eBshb2hUuT2zTbzCZbKTvMLnpWhH+j5aMSyAMixBQU+8KlyW0m3Ut0ZITZlUf2cuSIDeHVB6MjiahRFizsqt90onBBbfrxKptjD2HB13Lal6hRFizsqt90onBBbfrxKptjD2chfEY54qXrTq1YXA9bbkpNOXJ8OPCbZJREPMdpM3ovWbCwq36TmE8/vUT3KptjD2EhfEZ5jhw5bIg5smcUbk26FrlPxYrM1vW2+Z/EvHEcz/MU/d8cySFm9UHVU2kiLgRRrMhgrA9xFv9jnzdeWox6jUbj6H5eFyk+eF4JIUMR5rjHbiRMVEpJVMRLighidasbbYzdp5+IlxRRKxK2XsuDi/Opzql3seDs16MXhLB6eVr1c2wYIMQdlUAenAuTLH5y3VP4ueb34DMuQhzHpVmkUqsSfjGAzui66yj5nyMHC+HVBxHHd/uaJp9Z+YIFliIGQpxgEaww7gG8tJAEYXyt9Hq9nlGkMpAChXYTaX5zTRp1RQwXhQsD6kS4GEL7sx/oDWXe4WcoZRC+rxD0PdQEAACAM3pdjElppxw7QbLqgz/4+COq8gULLEWMZn/UhkGrWq22xHlJ7HXNm/1avTS4qJ6enJxUW1dkKxVcgaL26Ud0RQyqwoUZRmlnjHGzPxKJn9WW4WcIZRAXxQ0nEOLPxNJcrFYqlWr1YtY49heouF8qrlcvfRyYIwgSVB+cSALJfCXKF1A6cnlAIcQ3auvh1VTFGKuTy4HMai/Wj012DDELwGqYLFuzEYzVqcXP1e0SlreawoU7LH5iTgKs+AAAIABJREFU1eEnBYHmxxXF+lGT4xDG6kSQ3F/PECdI47GiiKXhhaTmL05pI0pWBE35ggWWIkYaShneihjeKB+VoFgbKW2jxX28QeeHAYwn562jfq/Ta4tFWMvDC0Fyu61gVRJOJMQJ16OecHOar6iUETqyx/fF9kpsnUxUIKGtjusPlrcrqB+VAVR/7dkAWewqxmh5uwJ5ECB2F3B+2CArBAA4XhqJZ/ylDx+WN/N1u3Q/o7P6HiNKZI+ifKHBoTTBUsRwtgcpnpysAgXHS702DK+mup81sd8kGzaOFyTBVJLftzKIh/+OeUOcIAn5p9i9QejIHlP5AhhKEyxFjOl5awidkaIoI7G+8ls8OUkFCi1G1+vAoLXdL03PWyJ0RuRPDZjdbBN/AymDuPnvmDesSlfQ6CnKYrEYdWDY8vt4zLET7Kaocq6IkSgQ4rrXo9Kgmn/GTRnpfcbNFTFSA8bqzUAuiQr54LVrdz4gpPd0Qohr9ntiTVfEOJ/myynHe4ZcQSNHjtiw45y9D4TQgfhtUlWO9xg7Xk7ZJHS8B0Ac7+f2kSNeZKuSUXI2sSqdVARblBnxkp+nokuVHFNer56mGrc8D0KcMB4LHLI9OZ2psSav+P5IFK23D5Yd95EmgX2/llyQoUpGcdlEiHvw4EFcN2b3KjkYq9JJpVptDdewHrYqlcqJaxJQXECccNaYXbSqlUql2pqXxJH0SDuVhcKD7rVYkmVfYvRmm6lUcdqvaymozRQD5QzCAvP44ISOvtLvdq9/9Pzrr7/+OhyhQ0Ozb+4AABDXvVauCaGj3+1eK4qi9N2pUAht+RzdI8efyIMs7OnHqiQIE1UlycHSQIbSPVOGxVw8PZ+Fs5wjCnwtJz9MD0/YCAtPv/mBu82whI4nXz78jYiEjk5jS+h4vOU7bQkdTx4+/Equ1T/+ntt4+2KN5n/sINzb1a32VNxsXkhSGPW6WM7yTnrJjk2/KbDRHZ1Igm5KvZzJ7c5RGYD16UkjRLSmKsagTi4HjXaH1X7MXRpqA+v51eTFJh5CB4A6ncli56gMsMSgETrur2C9+jnG7lENlv/6DEyEit8rHmNVOjkBAAAKnx/0+07FKwHC0w6kVQ5tf+uzeyI8QSMoPjxCR9J+AgDw0lgsDVuneeXQTCAl9UGNsDBoVSqVirbLcu3X4MHawGq3mqDbjA/eFq1+Oo8uFB48KFgmP4SfvDQWS3Mj9dElAhka6UTMsuBnLCONqj4YBF6EDt4cMYtE6GCE42IndDDnx+xn4cGjzz+tmZ0pFB598/zp0+ffPNJXVNA5R4jjpYVtLbEshD6P6UTMoveSBQsEKUX2fBE6Hj9XFOW6u0+EDhJ+VJRRuwjF9ohKSHn+9FOwEzRertbrtfwsPNuifNypARTbhDCyWCyMeSNhQ0URa1B7/Py5okc4c6QAes4eylidbv+EDqeFJMYS1KYfr6L7mY7N6Mimn7GMlP508qzYkhDM/YYjdDg9T2IsQW368Sq6n+nYjI5s+hnLSNOL7AXG9GbW7y1EndDhb1OXI8cOkS1BmhzZx76ctZ1s//YsZ49Ub905w/SDJVykk9cXHbuK9e1BjfIPCi7ECqIv8wGu4T1Cejl7KdiMjh0SLoBBrND+xAk90fInP4SL2JHNs+ZEdD/DWfD7dMpCfCwF7IpwASSAySBWIMR1e/X5MCjlIhFk8KxRsZNYX0qbPXIHFXRmhYVYwVSa4HhXQgcnjBcLjUDhbodF9HAqYrgNIUnChQYGsaLc7dVXg8vbSLZzpIA0351q7dLswkGsYClNNPsjsTQXW9VKpXIxg2OrQAcnjHv1lVg9n+hlJV3ssIgeTkUMFyRNuMBYpRIrEOLP2qvBeZ7kugdI87uTpkBhI1Y4iRscQktoNmrrYeuSrBZ1Ytlylc6uR7WVTe3P1Y4r0QPUy4FsJXrYkSbhwoZmXwSxOsHY9uALaidHCkhzOdGJD3TihhvBoVgryWuoNZowMV3DwewEVcRIi3BhA+IlsTRsvSxzRkCkXIbwVK4cySLN5VRyKmUwlSbclDXWw4vzy/t9RbwWXmo1xAPbCaiI4an0gRBXBubDLQrWUO/16gAAxSIAiD04ujjPlWayiTTfnVjECgpxQyM49Lok0sDxgsBbNjt4Iohysd3rmrXVmHboRA+2IoYDLDsECPF9ZTRKIHcbT4QTHaeEin+ar6XsIs3lJA9XjZ6VWOFC3Jiet8RVXRxpihU3jlfx6XlrCG1NVNPVDovo4VTE8EO4UEYdBuFiFkXewkysEBUl6TqeOZJASkWVESdcj0oBNlcJuZErd+RIEu9/klGu3JEjNWSYoBEXcqJHjrSQK2jkyBEbwtcoD1f5xaeSRVCYlTgemSoEeSp0OP1JonYPrd9UKgRFJpIQm552AimhpDP2JGx69hKS7xSeT5KMkgVR4nj4iabEYXjlrdBh9ScdPk92+GO+bXoc6V8JJSE/CbHFVmstok3PfziRdiiCqmTBgk+Fi9T8SRqcNYc3RstanXa9WpOWFZxJBiSVeOLgzSwsw0H8N08fP378mV0xxMi4NrFsqO2uqiKGP91rr0+LIflO2eS9GL6kzHKJpRdOGI/qMCCiGBezki3nlw2EOI7jjARetufrdalBrobycR3W3pJaJj99+uKNcDNMasob0Ag0V9qnws9/9JgQW8w2m/1RG+ZaynJ7JOlpAKx2Tz/9XF3h+U5B2SBsJQuJtzIl9Ha6woUnscKnV1R/AACg3L1WfBI6WP47jrcTTxRFURRlawfxZ20YXmgJ8lidCHp2OZt4wksLSRDG10qv1+uNlH4TAGPMJpKs5vNSp1smKerzuTEPTEUSabxQFEVRrs12ghJbtlOtz2REJhJCfH/UXomn2+wQB7FFS1m+ulQxxurkariuNZou7VRQ/XT3PL3NHlXJAgBsihXiWRNcFS6CEiuC+hOc0EHxH9gEE7qd8lGJkSLMIp6QruulwUX11KwY4kIkub2ZQ/243GzU5NmNebw0RRKWnbjmPxwIybImi8LEeGjQiC3W+SQlrjmEmO0xIfxyChpLYcRJwFCswFj9/Wey+/D0u4t2/OVALtaPOYdZWi8+nTTZVyeXA5lYKBQesfvd+j+daf5rdi62BBNpgs32lwAAS5v/VEcnkiBNVNCJJ9b5McQ+AKuq3U/d/y2WN3Oo9zo1eWakbDXNx3/7RPOHOg8+598JcueqnEhs/sv2JBHiiaRi6mttudtrw7DlYH9Rpw7plXoAAIol05tVmdFOdX7rz2nVg3YW8jOuOcrh58HtGh7R7haWP7FsuhIrDJOGV8EDjyxCxz12v7SnSkBiiNNzAz6VR7SRlu+5EkmWl4NVW1wNpgBdu5+W+f9eTMQWH/B/LSFeGrVXYtWeI+a8cvSG5eVpVcIY8QDr1cvtL5bSSUUCcLRH9XPfsiKCEivC2KcSOl5R+2UuVldiyJOHX0ysb7qF5asV1O/5J7Aw+33lTiQxiI6ct59xEFu2A4lKYEGI73dKw9apr66t80luGirGyDqubXtot6wIudkLGp+xHl86KlN+SLHpULhwJ1Zg9XYFtY+aDlPLVytweefcdhEzocNBMCF2Hn/zA2Kn3OwSO5vNdz8cQvvrb5plAADE8Sb7bOURx+y5E0lomBrHQ7n5+ae19fzHLzabkPNAlFAc8+xOYPFzLWl1aeYXVHKK08Jm890zudj+7PMyAOL4s3aR7G/1cXXJuIx2P/DjZ/h3p6DxGaxhq2Rx3S3bDNj/S1O4oBIr9J9rShxmYgXGeLP57lyUS6JFPsP0E4uyhpPQQfx26ZcKFsGE2Hn6/DnpwbDzQjppzaEz0jgmqxvt9Lsoj1Bn2JVIQvfTqkiibttpdrznnzLPHgQW72upeWZQZrYYC5yWsrF4/vyxjdgyOW8Noa75P2wZoYspo30bQ7Z+1ArkZ56z54ac0JEjEN5/gkZQ+CF0pJPXFx3R/dyX/LqMYN9CESnAi9ARNKq5K0T3M4mR7svshUO+2QsM8501yxdEdD+TGOm+zF44pL3ZS4GgYQ4fhSBoeCKb+YpOYIwR31euw6ctJDHSfZm9cEj93SlJgoaTIBCUoOET+1OnO7qF+Ee6L7MXAjlB44MgaBjZvrY4c4xdBAWdiGFydGzKJyZwzo/tCiGWXOwnjTyylxVEJGi471cngkZtEGVNGSRNcZCA0JKeLwbQGV0bt5XQ85Mm0ltOqRE0ovgDet6kdvtOjKBhtxMHQYPXTbGUPliTYHB+tndyF8UT9vzHpiQCAADqRLgYQvus6T4/mUJO0PiACBrUSbBwfprmtBuG4kmKBA0WsSKzyMJmj0JwYB0ajiDgH6GICWEIGv7990/QcPHfBcub+bqmsXSbjRpsU4EsdijEDYf/nkQMM9yJGNGRtH0qsvAZN8hdJwGCgMN+UGJCDAQNF/gkaHj064LlzXw96nTL08v7RHRH/wNrXEnOf1C8XK2htEsHrMjCcgqCnRE06P2GI2hQ7DCOD07Q8FD6cII8ZNqd4/JtqbaeX22XEEXxxHP+41USYRErMoudbPYsnAs3BCRosAgCzHaHP+kQNJx2MJ5cDaHd6+uRmMAEDXf/PTCdycX2SLQlKFIUT9znIV4lEY6Xem0g9VWY86Od2TJpPK4XfbMBE0Hq350chAi3g8MRNBwEATZxwBdBw7NfKtwJGk47amSChmE/EEEDtEUIAPLAkqBIUTzxmocYlESMWG6vA4PWtr4Ka34Iv2SxWNj83AnynD03fDgEDU4Yj0oDI3yaEcWTvUMWInvZwgeouIFQMF5qDhbooQik10NLtO8keonBpoOgkVE/Y7LJSwuxBmtZPJlQfui0mc61ERTRvYplXJTNXjop9PuS/J/bNNvMJr0iO1SUPdvseaYzJkQAyZHDDyjLKR1GSlJcmvLHnz7+7Jeyzc/ZX5t+euF4PuU7WvSxxzV79KdTOoyUJHrZvKBklEQkehh+xkgYiT52JwHB3aYpc9WSSgsm4oMzpdhpE2Nc7vZZxyNO6ImiaNH4SYMoEX0+Y7kaM7TZ80M02EdkYVwIcd2eWCKpsdXWvLRNpTUTHy5mR568B5fjEeK6vfp86Otj13uJ8OqDQeEkGuhgEQ3oBAcAgGafRohgEUCCET0KhQePHP2y7NjuuGaVPn/jMhMfUKHwKArBgcymVpYbIQAoPND+A3C/VITVTEtdvZmvjUk7axflwbktVZfdBX/WLspPvqAeX+726qvB5a3dK6qf7i1BkY5NT4RUHwwBB9HAuKwRIRp8+fA3Tk9PH37yQ/L5g0VwYBEiMJ6cV6sPH34lm/wMSvRACDW/efq4NP/qk4fmfl3suIJKoKD3G3piTdMIALC8PBVX7V63XCg8+uZpe/XVb1wutbyHUqPJIYQQt03GKR+VQF6BsXnzWMmII8d/4zye6NwMrDXxt+NyXEKuZetDjj1Rm36QXgrsRBLIPwjRoN25xyGkfyElRAMAG9GgtSU4mFIfDVaCOp3JYufIZMcvdPuaHZIDyl0uf4b4j2rr4Sff0voNAQaBwtHvUpuZyXl14nMHTwgIAAAgnVQsZ316LjaU0Y/qUJS/qpqqnx71eyNFBHvBs1r9SLyoni+h3O2PRv1brztFrX7vqy8ffqHi75mPb/ZFEKsTR71vjNXL01MAwNju5/sHX8sJYxzDZzIG0cAcVDF6QZwL0YBJ6MAYk5Pl7SeDaIC/d68Eq2fLxKKarH4jz7DVwuRq2Bm1YfjlVP8T170eleatiqAixDW7vVEf9GUjDy715T2T2663J4wBQH7y7fTFZmM+ftnsi6Vh62WZMzIiy2VQVee4/LREG3tSNv3A79MpchiKQjQgsRTz3WrbS9iEfL9+uhIl7n0PJ0UEYBMc9O+k4QkOxtgRJ/Taq+Gw1P7685vTSxUAysf1opbhirE6vZl3Rg0eTafL21UgvtDydgUl6iSvod7r1QEAikUAEHtwdHEuqZRwmZ+WoEjHpifSjOwFJxo4CA7+4CCA+CZ6ePTrsEMIAp1uOci4kiU46FqX55J0Iq70CB4hMmjvaVxTf3ki/nS62jtVt1GD1a3LYmYdjyfCiY5T8oZ5ek5Vu3i/kZL6YDiiAZXg4NmRjXCBEILlpX+ih7NfY6ROwgihfkB7FGxcSRIcmv2t1uX0XJRrosQjjchQHy0Wi61UBibHtOalzkhRFGVUpwn7Of0PdPz7BM9rPiRBI5u5W05kJ5sraZs5koafs5ahz7g5cuw7QgbKY4n1pYBdRXjStxkjEOL7ikh5C1wPPwQmJQt+zlrOxs2RIzbkmz06cqJHjhDIlxMDySh9eAJxabMbcsSI92qzh3hJEUH0UTCEMLptWA9bu62Cr7+0yMYQECdcj9qWM6S/wHC81BNrRQCSMyRMNM8Rx/e3fxhenGtvO6b2tTy8ECTV3X4gOz77XQ8HJ6ba687jQ4w3U8jQ0ylNIkMGFSUQ4rrXYkmWzZ+uSOqtAVEGUgoGccJZY3ZB5CRa85I4ImX7WUQMhLju2dHsghw/gLZ2PNN+QDtux/fE0rxVqVSq1Yt5XXQ/Puh4s4Y0FTRYihIBiQw0RYkYFTfYRI+xJI0Xi7EkEIUNXWIoRkWJuXh6PmM6xgmd2np+swQArEqCMFE1OQlpIBvJGnQiBsaqJEiG/MRMppQONdsPbod+vC256XIg1zpdDjEJI8HHmy2kt5zYhAvwT2QAhqJEjIobbKUPWF2dtoZQa5cG1aoo1+rH5RD22f2qkqvICrkynZk7iOQL35JLlkHEMB/P8Y0aJY/YbD+oHT/HWwfrfbyf8WYNKS0nlqKEDlclCKtSg6uiBKPfeBQ3VrdLWN6uwHTmY1SUcIdLKTyioCOYiBhz0JOArFVRiXCVMurAsCVYaYJO+0Ht0I9f3szXek4j4rqdGhRL973sBxpvppAW3ymosgNbqSG4okTSihupKEo0reoWOnhpLJaGrVPtD65EDFClk4oEiOO7vdEYrHEXq/2gdljHY6xeXgxLvdGiDbCWh3MZ6quXXvb9jzdrSGuzR4Sv/O+DlrcrY9tmBAow1ogeAy14QNuR+bITbTAB7CMUQ3CFVY+Wl8ZiaW7JVCgf14vyzETEMLSbDJj1mpj2g9phH49VSSDhhRPhBkpaxrqr/QDjzRhSWk5BCReuRAY20SOo4oYHvNd/SooS5eN60QgSEMscLy0o1xaDiIE4QRIMAVK+27ESMRz2A9thHA8AnCAYJ71n7N/Yxwcbb8aQHrl9et6Cfk8ctUXtO4Ov43Uy9nCwFSZp9ESFWBHnMtS3P8GqNJDrItl6ySLZPFDteALjybnYuB4pbfLl4yaYnzpertbr0soX4cKcKVdTFNH09al51i7KouWlvHzcqQFA29hmko9mGE8Ih31BmteyRsRQpav7Uk8Ri3qzmVjhtB/UDvN4gOXl7dm1IhYB1uuh2CLvzC7HBxqv56ymDL+fcbNTUzsLNrOZwJqROt076SUjNtOrZPTe2Eyil+jYVe2eLPSSHZsZyorIkWPf4Ws5pVP/el9sJtFLdET3Kp1x7e959wO/T6dYKjg7bZa71wtHRk9Em1Q/fRIuqHW0qXW6M7WWCKJ7lc64ErqWsmBzx5s9kvFYbQ0pOVvxYkeEi4wAEeJHqBuWH0WM0PZdCCnmfqP478uNmOaHvpyi13cOh+RqVWM1TmUNoxcjx3VrkJbwyvLKvSWcVzbFikeFAgBgrEKDnk9oy0y2/bXwwKKIQYyaoM2ei32LcIemkqrPHuL7I1EUz37ZORtWJY5A9kFPibZAPy/U4zFWUUPsdSna5+7zY/OTspx2FbmKKzaFEPfgwQP9rpZGzKfYPnNVcPOODSYRlzMskZbpTHb6ySJcEBQKDz7/mqKIYVBaKqY7FN2+k1jxqGAYtxFSTJ5TlDhc7H/5ycNqtfrwky1xIzixBU2fycX2Z+Tu43N+nH6mSNCgESvcjt/eYcaCYFam4AS6AgXfV/rd7vWPnn/99ddfm4gefF9RFEXxqawBQFHoMBM0+t3utaIoSr+riXfIsqxleVLHqyjKdb9rIpKM+/1rRbkmdixEj/61oigxED2omF4N13Y/3Ykb5c+/rq+efPsqgn0nseKe6QAGIYWqxOHD/uUTL+KJG9Fj+sPhuvbp50Hmx+FneuqDVGKFS78kcbhVrVZbA6hvk4ma/VGbECJaooMQUauXnnz58DcMogfGmChr2AgXrooYdIUOMBE0njx8+JVcq3/8PdI+uxqCI1HdNt6n3zSNAa6uTj+xEj0wxs1vnj6GJ6GJHrTAo+VPngn1NuIGQvxn7dWTLyhJJMX2yLn58bavESu0VIbN5oWNkKKXlaYocbjbN+pR36MRN/wRWzDG6rdP5GL9Y//z4/QzPfVBP8QKo18L8UGdXA5kYwy2duv8rudXkxebDehEj1Bj0dgiGKtTi59bgsbPbRaXN3Non1nvD47x3jPbUR1Ej49q6+HVJArRQ7t7YFU6OZFUTF4Xv9tstkdMr4YOP4FBuGj2RRDPv9tszH1i0y6qJc5L1s0Py75uUCNWuEdKSb/0tCy2fYzxD7556iRu+Cd6YIzxJPD82PxMcbPHC2P9HZBaxc2CMoMhxmqPEyHsLwnP1PxACT7eolau2c/xoWDlw26hx1cHq/pIq0TNS2JpePWyzHGcNqiy/WmpTqSL4brW2F59LPtgECu8KjC79xvGfpPcfu3N1OOjz09K6oNUYoWbTRahIyjRIzWQG2dD+1/sRJJYiB4A+hs99QZvfdqvod4jIG+YvTP9Hc/1SqDZD0SsYPUb1D5CqFB4EJjoYbJvG6mf+UkzZ49OrEAIaen6pjnSCB1nTQ4h8/HOdudkseGtrBEapOBBrWZ+qgRVDEme6KGl5K+NGzCLcMFSxCg8EPpdntMD8j3HPspuPyCxwlOJw6d97UItfxyU6GHYf1AoAADiupLwKMD8BDkX4eGuoEF0KEriVvYCAKbnrWFJHCmK0muA6fjpeWtISNGaEISvnZlTWQOAoogRBUvjDc9rvFQkraxh8bNI6lwAVqWr20ZPURaLBZlPj/3Y8sfP4KOvnz/XOel2krzNvkasKLbJuCzf6BAvLRaKIta04KrfD4A+7QNA87N2UX5CIXowjjfb/1ibn8sfvvrI//zsB0ED8ZLSWWWcOrZH4ITxqDTwJ+9rh5+zFsW+H/ixH+WKJfarGpUrgIXslq1EvNCHG2Gi1SGoz7NIF9tfcBxSk5Qz+zDtZ3g5Ia65LTcqXpxP80dTjowju8spR469Q1p19mjEh0gGc4WLHNnD3rJxP2zCRY5sIr1KRvECq9JJJb3uMqi4wVKyyLFD7OtyShkToUKCsry06Kx2H2M0iAOCihHH90cj6baazTrDHxRS3ewddTXig0FAsL1Tmel3VJoXGGwFKx9es2OVstCPpytcsOyz2qlAOgPR6EsbDyeMF5KgM0msRJIYFDf8KGLkSB9pLqdauzS7oBMr7ECIPxNLc7FKdIFmjWNj5bAVLujECqrCBcu+S79UaDkpRn5U05y+TB9vXIob27liKGLkSB9pLicXYgUVxfpRk+MQxupEkHzk11CIFa4KFyz7wfpdmuprNxs12KYCUcYbr+KGiyJGjp0gzeUU4AaK8eS8NVzVO72RQuXo+7XPID6w7IfpV9dcMZZKCH/CwUkcyLFbpBmKKB2VAXy/w2NVEk4kAOB4aSSe8ZfeircULG9XIA9oarks+0H7JQ+Zdue4fFuqredX2yVEGy/bHwKEuDIsA+V/YHVyOWi0O8fcZbAf5ogd4flOwRlQNGLF8nYFupyWichgJg6wQXn9tnNUGMQHln3ECZLw6EEh4EN7OpOL7ZFoY4tQxmv486BQQAiFJmJQiRXLBKrlJFHTan9tevbi6+lk5jvp5HN7iw/Iw1WDiC+sZZHEmjWhClGT0zIUMbAqXR3rSg1rediy386pChcIIdDc2x5JV+Jg2V9e/vC4//Xzx6x+qcB4MpPFWk0TgaWO1yCSTM9bqN97+tzijw6/ihvYoWTxyRe/T/4U5Ix4INRZfm9t+unFV86e9X6PqS1ZQHSvQluwUQYQJ1yPSqxNXRKzl9tM2qafXkLWKE+o2lFERPcqnAWX+h4x9pLb3K1NP734DUU4TWRqIRmI7lVQCyT/aC2LJ0FC1UnMXm4zaZueveQEjRw5YkP4705BYylIr9ehJ94IJLoVxaYfr5DecWhCR0aiRiFspm9hV/0mMZ9+erEh5HIyRzkCHc+ftUvzVqVSqeqFH5ymQs+CiynEhSR0RPfKj83QvRgKFEnMXjpI9rwnedacSDWjXCt7O0squwzx/eeP4auHX9A+2l6eVMJvr/m+8jhjBA0g36lGYg1kcXqeZ+xlASGXE8YYBakUYxzvYiGoTVovW+Px2cQIocl59TuMISaCRixjR4jTFChqIS14epUOkvA8ibH4sRn+3SlQ7W+EuO618vz503YRaqJC3p3KAFDuWkjvzb5y3eUQ8k24EExED00R4/Hz59a6ec2+VlTNwq6nKnFQ+3UZaWiChqIoiqKY2zHGAM1gShlWBYpAZ4SK6BZ21a973fO44GkztbKVqnRSqVZbwzXIYtVZNJgGNuGiNBdb1UqlcjGD4yYAuClisAgdbCUOpoIGbVw7I2hgrNoUKHLsHFmuFcEmXFxcEuacOpGkUMQEVyUOloKG+efbV/8dEjR8DDOLsb5dxQ9TQJbJ7UwFjRhiGW52PIkk1tyt5c18Pep0y9PL+43aetjyJmjURkrbaFmvgnvvC+ZIVMSUq9AW0rGZHWR5OdGwvF1BPRDRI1k7GSBo5MgOdr3ZYxA0WNAUNHpdEpngeEEwy3V5KGJs/xRNicORuxWcoJG0UgZYw1y7spCOzexgx8uJaGdAexRMaWJVF0ea0oRZaMJFEcOpoBFOiUO3ZonwYDyZyQBAJWjY7cellOFHgSKbsb5dxQ9TQJ6zFw9H7W5UAAAgAElEQVQCETRyvK/Y9WbvvUBQgkaO9xX7ForIHsIRNHK8l8g3ezlyxIb93uyZq8bmyLFz7Pdy2l8YxIpdO5IjTuTLyS8Q4oTxWOCQva66iRFpLnPJagedWCFa+Vcs+zn2COktJ46zXB+IS7tqKUIcx8X/QGj2R22Yt6rVamsA7ZGRXc5q3xIr4vUjRwaQnvpgb9Q3C15cj870KvsURQlXgsa2tXtk6oJGuNCOX0iCML5Wer1ez5xz4F+xgjkuLaX1kqS6GtnlrHYNVmJFjvcGaT2dSN61fkWVj+tF/ds/m7DAImiItZWo3fXr26QkNuECAGr10uCienpyclJtXcX5abV8VDKlui5vV1oGOqs9J1a810iP72SsJ/NHT1fCgpcihjq5HGg7JlfCxdYUAGBVNXkVgBCBsSqdnEgqoW4J1jVZFsZa7hIUS/e924Paz7EfoH/GTYLkvLwcyEpH4LY8BoQQ4lwIC0EIGnp7EkQaH7OxlE4qEgDiAdarl97tu/IzBps7IcB7IrpXsYyLspwSYqSQQt52HsPyFZWwwLzWWMQK0s4hUO01yt3hSYjwmA2rP2RRqxgjRrvTJsQ0w+lwk7LJVsoOsyvVQPl0JhfrZ43aen6jrSaMJ8/YhAUnnMQKS/tnWvvnn/oiXEQnROj+kPoW200sqz3H+w3KckqQkTKdycUaWU2G8YkbYYFm47w1LIkjRVFGHTAROqbnrSF8+vT58+dPH/smXHgTIjxnY3reGkJd88ekAshqR4jvK8rz549rWpWYeD4xpcNNyiZbKTvMrjxnL0eO2JBnReTIERvCqw9GRxJ1pbNgYVf9JjGffnqJ7lU2xx7Cgq/lZIlExQSnzei9ZMHCrvpNYj799BLdq2yOPZyF922zF0UpI0eOiAipPhgdSUSNMMZQ/vjTx5/90q4jPOn3m04ULqhNP15lc+zhLPh9OqVT0SZ6L5sXUTN0gvpAJVYgjmQXbR+SpJY5AGwTfhdjid+m1bP69U8AwRhDuasbXywWC0VRSM13D/+DEUzK3f51lOPJSM3H97tlY+wuxBYX/xVFUZRre7/X11EILyGuxj0gaCRErEgWy5v5ulg/1tJwEeIbNZBnU8QJZ43ZRataqVSqrXlJ3BI3WAhEACG12g2IMnh+zg5KMNlVe1D/d4KU1AeDEjSATaxg3d01toVDKaNQeOBTKcNuSiduhIjwkJTfbRouKV4+BaxKgjBRVYwQguXlQHarsgmhCSD6JHdMCSix2N9Ve1D/E4LnlZCS+mAoggY4iRUI8WdiaS5WK5VKtXoxaxwbK4eqlIEQan7ztA1PPnn4MJxSRugY0fJmvtazyMtHJZMUgGaK5P96FEQPTgDZ/vS4XpQHkuq6XQlqf1ftQf1PAH6uhCwTNIBBrCjWj5ochzBWJ4Lk/pqEEP9RbT38YTCljHiIG/odBCHuuE7J2Wt+87S9+krwVU4sMAEkYOm/oPZ31R7A/50QXlJSHwQaQQMgsKIExpPz1lG/1+m1xSKs5eGF4CoEiL93rwSrZ0uqn55KGaTHkDp25A4yajTh5VG9KA/MxZ8xfiSNH5eGrVOfPMLABBBoWtU8Yra/q/ag/scJP1dCSuqDoCdZ14/LzYYp3Xt5uzIEzgi8nglYlYSTk5NKpSWuau0zj4jN8nYFpXvfC3xnQogzPaxCxhvJ3qN5v1S0nmNeGj8uzVu62La3CX1/SrY2KsbMdt15vyIGQe3vqj2o/8nA80rYPUHDRVHCCcQJksB7bY6jKmXEpmQxncnFesfUKUIcLy1ExlrSymBYFD5DEUDKx/UiJQgR3f6u2oP6vyukmxVhImhs24IQNLAqXUGjpyiLxWLUgWHLzjuMSSkjgJKFm7d4MpOLRfOVXT7u1ACK7ZEm16vv+A0UAUpH5oagBBDQJEUZQYjI9nfVHtT/nSAnaGQLCHEYR5Zw2539pJFx//PllCNHbHjfUmBz5Ngh8uWUI0ds2LPlxEpn5AQj8zOv7p1jZ9iz5cQCyfystobrhDvKlS9yuOA9WU7pgKp8kSOHgXw5+UWufJHDE+ktp8BKGRxvIlZYRC6Ouv2x1U7QfvU/BVTQyJUvcrgivUpGTiKGbpKhlHHcgNlFpVKpVltzaI/6BoGi1i7NLuhKGZqr7v0G9ZyM3ax8satqR+7YSe2ejPSSEZspVTIKqpQBABNJkCYqAGCsXloIFEylDMM7k8NuBBA/RAyXsWdqRe1LFacs1FdKzmZIgkZguBEx6EQJxAvXnfY2Z8Pr+OD95shBx+HhHQBC8Sy8efPa/w99LafQnJ8tlrdOpQyXRylCfF9sr8TWyUQFAMRLSsf4Y4mioKH5uXXYpV9rRx4KGi5jz1qd7ojnKIazvKNeYrR59/Bws9lsNhgAI4Qwflc4uFMooDevfS2qlCoZUYkYXibXK1gCgFkpAwAA2ISL5e0Kah/9YGvUnQDik4iRRMWlJBDdq3TGlU5VrBC4e3jn3QajwsG7d+/evXuHEGCMAZPV5QvpRfaCETHw5Gq4qovKYrFQeo3buTk6LQ9XjZ5OuDiRLGqC56JcEhUz8cG13wBEDBIGVBSxBjVRUfL0i/cMd+8ebjZQONju7t68eXtwUEAAgDd3Du/6MULPKE/hoU/3JnK/TgtJjCWoTT9eZXPs6cxeFvz8T+4evsPoreNNiTyyABXevX3jaYTydEonwpNEv0nUqvbTS3Svsjn2dGYvC34ihMgLGMWCvlIP73o/oPKsiBw5NFAfbq9fv/G/SNNVH3RF9H6dFpIYS1CbfrzK5tjTmb0s+KnFBvGmcHBw5/DQ9lf/Dz3602lXkaskYlOxjMVGAHHadFfuoPlQbjbL5uOzOfZ0onBZ8BMDAMaAMd54Bx7u3j2k7v3yzZ4veBNAysedQJnmQY/PESsOD+8QHOor5/XrNwUSx3M+jWiPJ/xu41xRqaoPIiIjYXpxTCVDjKJwETuClhqlHm+bH60xFf/9I5v5ik6w/Lx7eHjn4GCzIc8zvNm8O7ijPWpev37z9t27d+/eko+2LiN9/foNQtj5PSpD6oM5so99OWssP20fagvkaUT7UOs5UvKuZdsWprTZQ5wwXiwUsQbaN9CF0uf1P9GJGORurNWiEyQzjSIwsYLuj+k5yWv23ZU16KZoyh1E30mSxovFWBLIOCQi98Q+3jI/RAwqR4yI5UOtAfKqhq0B9JTUB4nuUFWUwSihLHxH/vSDjz+iEjGa/VF7JWq6PfUa23bs8KWsYYCq3EGwujptDaHWLg2qVVGuEbkn6vG0+fFZvjxV7CrqGxR0PzHGyJ599/r1G/KMckZHKBZ0HN452GAAQLZ0Pr8Z5UlMH7E5kQT9v+rlTG53jjiElnrJehVjUCeXg0a7Y/7hRKj4vdqIkgIAAEgnFT+/MGQ71OlMFjtHHEKhyl6vbpewvL8iRehDRx2C+58sMr6QDDj9xBgjRHt+IJKdhw/v3jWvDdZIt2vpoGBbnGkRNNigEzHKRyVYzfwTMeJEEAJIjr0C60Pt4Z0Dn3cJl7UEOw+Ua0SMQYuoZ2x3QFZlBNoP83JCOYKBBA8O7twJ+qGWxPEw9lhLkPZyerlaUxYJhYjhVL4w/yAGhYvl7QpqnW7Z1q+fX7HVIt2FOX0cT5+fHDHByJMN9aEWb965ryVIeTlhVRrI0B5tI1cuRIzpeWtYEkeKovQaMLe950dVuCBUDmiPaAQQj1/ZCCCmP1mUO3yYsh/vnJ8cMSLKh1r9725rCVgEjawB8ZLSWfnSF8uRIzju3j3cvMPIulQO7xxsYMvLODw8BEdg0IbsJhkhXiDC7AG09HLkiA+2D7Vv3rzxpLjvPrLHxPRm1u8txCIArGWfMmc5csDdw8MN3mzvvQgVCm47NBbMH2p9/nw/Nns5cvjE3cM77zaACkhPHyKryuOdx7nZ8wziUZHdzR4VJHlH8Er8SQ1JK3dkJO11X2CkEb19Q/D24EDLefBfPgXCriXYu+WUNaSm3LEv2LHCCMZg3de9+cX/rsk/4BDyyU6HgGvJNt58OVlgo0iQZ0NKXQcnYlAJHS7tocGaB1s7VWEEIU5PcR5LPj4hWErKm443tdtr1htwcDr5/kj8rd/6H+5bjzU5pNWsf/36TYH79X/6f/50oTz/yZ/89Hd/+/MHdw6815JjvOH5TtnkvcTDy3K1gBDHcVFvwEnMXkI2C4VHZ+2iPLMXckOIN7ezFEaa/VEb5loqc3sk8cjFT4S47tnR7KJaqVSM47X2nlgiKdHV1rxkrlmv+al9pN1sCCPQ7A9CiMS47949/C+/+G5Uh0GrWqlULmZHx02t37/9j/5B8ZX41//K97///b/5R0ft3/nHx+7XPHW8IflOgav5cMJ4IQmOuwK4EjR4hoIGASeMFwu74oaiKIqi+CF60BU99E6c40KIlxaSIIyvlV6v1/OTk8EikgRmDTX7NsIIjdDxCAAQ16USPVzm39vP5ke19fDKWRax2bC3OxRG9Brxl6Sm/NVwXWvoxBz640WVBGmiYgDA6mQmG0ki90tFWM20WvM3c8vm2jqfeLN5p0W3dX8wxgD44OBgs/m1zn//n/2bJ3/3D17eObx7V51I0gRr9v8L9BfzP1hiQIWf/4tnfwHg45p3jDfNzR5d+YKllNHsj8TSXNTuInBsTe3hhHGvvhKr52TqNTvPvqxWqw8ffuKH6BFKWaNWLw0uqqcnJyfV1lXonIyAoBBGnISO6vkEALB6eVqtMogeHsojVCDEff5pTX7yrWrfR3HdTk0ebD+smxVGtigflUwpxcvbFZTu+XywI45v1LQfYzyZyVBqNDmEEOKO68X16qXzJ2/evivotg1/CgAbDAhQ4eDg4MEv3iv80Rr+6e/+yU9+8sc/GX/7dzgt8Wjyr2R0r9F8cOfg7ZtfZNk3gzrekHynULwXuvIFVSlDu6tdXJLVYrqLAACUzq5H7dXg1FJ5fCIJ0ncv6HZM/ZKDWcoalCrn1iHo3A3AKq1Kun3e6Aod1NkjRAxJxQ7eO11hxNGX5xlhKo+4+dn8rA3Dq4nDZvOsDbRHFh1lEpAFACiW7nv4qcVLlVEHhi1B73p63ppDZ6QoijKqr7TvkHfvHt45ODi4c2g4bNDTScvduwcYY1Q4ePv2zZvXr1+/2QDU6r8k/8Pvf//732/PNy3jtjs9b83x3/idn/xEt69uJ4HxDyfC852C816CKGW4ETSKtZK8hlqjCRPT3SGYHZayxsvVGkopUHqCdOGXMOJlMzDxRHs0Dc4ZjyZ7OxtL6aQiASAeYL36uVfVIVU6qUiAOL7bG42hdSKpCHHd61Fp3qoIKkJcs9sb9eH7f+9faFmpbIOvX7/DCG0stV3l//2b8c8P78C75T979m/++qf3OYSWUHbadzI4Pc9amps9Sq50KILGenhxfirKNfHa+AAV2M7ydmVshwhcVZ5CI0tEkuCElyY1BsFud8I6/2Tr53OeLU/R8nG9KM8uycZPnd7M/59f/W9+jWQ++Ct3bPIHwETC1T2z21/XGiFCo+GXU/A4UrF9xpuVL5baWx2boNHrkjdvjhcE3tIXngiiXGz3uqaLYL2CJUKo8OCR2c4z2dKvyT5NWUOjYGjEDbKH9h4pg7jhQiSJJ1JqJXRsLdCJHkzlEcPPR4WC2QcSa3C+IrLandCJNl3Sr20VIsRL48VC4h/o/SJOkARD6JXvdmra8iMzTAg1iDv9tfp//urVS9DWkm7nkTW+QplPct473SaHECpwv1n/FfiLV077TevLk9NPFkIup8CRPQQA8nD1kaF88eW3PyPD+6GJoPFqLhs2p+ctcVUXR5ryhVNwY3reGkKbvFIbRA9FUZ5//dGrufGOhKZffDIsPXYSPajKGhhPzltD6IwWi4XZT/eRsokbdCJJ9Eip1q+F0PHIsMAgeliUR6w5kMTPZ8RP48ru1OSBI1WS2c5QGJmet4ZQHymK7V1IQxGgdGT2/Oq20SPFeUZifSW2zk3npT5aLBaLxeh//q9f/S//4J8tAZHnEkIIigCle+ZpRIjvKwrVn3mpM1KUP/mT36nB07/xP/2Bzb4xQZanqNVP1nhD5uyZz7qf14DCA+FHT0tPHn4x0be5TgtBbfrxytYSgugR3asQfsZi0/JXTrgelVxk45wWeGnRWbXMej8ErPZwQIgD2K5Mz7HfvXtosPiMPR5CCCEOYxXY83n38BADMksJkuw+n2lEPv0MmVGOA+q9OSNmTgtBbfrxCmNceCR8Az8WvnuhEz2uAr0jRffKp5/UXhaLRVydAoCoKGKgH9RGi3aQ9uSBABN5mILjKY4QGHnkCBUAsPlPZBGiwgECbLSA/t+4EJ6gEeLyYtVeimLT0wKe3Mz6vcXj8ESP5Ko4efZSqcRTu8jP02lfcHh4Z4PtFbk0FSYzTLyM7TNNW4gYbzAUDpxqThGREzRy7B9sPFm9tmvh7Zs3AHB4eEd/TG3TWInorfHsQr7lbgMhqUC5Ke/RrVZrQgQEo6prUscnkB2XBAqP7OPyeV62xzNG6q4YEs4msAkvtvY3b98VYEO+3t69e7jZYFQ4IGsJAN68eVsweBl6vYfXb8gH3nfv3r0jn3RDeO4J+3JiJdgHTbxvnrVL81Zy33N2CFYUjuN3wE1wOS9UPwOdF7d4Y1gFEPcYpo3wcqgLXfz5P/9rNiIMWVF3Dg8BY+ww9vr1Gz3hKBjTKSIsy4maYO/SzgJCnCVVKxSoCfnIdJvS/xa+Ujm9XwahwPBHUa6vu3a2AuKEnmifIicRwKXdMlzem8gAOzovBIEUQ0IQRkiK3Uanl282m4ODO4eHB5ZjCgXYbDCUf/P3fu9v/eIb504H6eWSfTKdomO7nFgJ9qz2RMFKyCepnwZEGWIvyeIkFGz9mbcqlUq1ejGvP+7zyAgeIMR1e/X50DJDnDB2EgFY7YgTzhqzixYhJsxLotavxxS5npcYKssnUJHcj827d5Cmc/H27du3b3WpC/tzhhT6AowB4wKtbp6e+pBeHWjrZs+RcO7SziA4cMJ4oSijdhFqouLz6XHU7Tvu1m4J+ZoDnKAnVxB/tu50j7xHTj2eRihoAmhJKAM9CeVyINc+/dwYV7nbq68Gl7cW42ftojw4t6XwstqxKgnCRNWICdJgS0ygz7MG+nnZHv75PaOReV7c7GvZcHZOHkMBhKI8QlUGITZZ/RoE9XemsNubN2/JgsLWK1YrnWfPyrO4m+bme+scPcGe3U4lOJB06Gq1NVyDLFb97dEpxAE/CfnkCpcMgkZfrAVR3KAfTyEU0DO4DSDEn7VXg3Nr1kb5qATyCvrbXSMxwmq3GLRsyVhEEvZ5oYzL5bwEJaqwFUN8EUmMvFJmvxhjhABv7NNC+dQEAPD69VucmahQ6CQjOsEhlDE6cYCakG92wEoFpRMxfPlPOd5BKFjezNd6EWbEdTs1g2jQ7IsgUr/n1OpH2uVl5l+x2zUQgpagP80CzXOkeYh8Hv0QSTz7Nb5o28BSUDeILYf//p//tb/8d//wzh3bn52BiuQQ9jMui+DABkJ8XxH1p4Asbj8pUt6NqQn5loR5TbDG7A+d0EHv10Ohw0IoeEk2eBfDUm+0aAOs5eFchvrqJQDiJbE0bL0sc0bsoFwGjQolDy41YRuT0A693XiA89JYLA1bp/rAgs5zUOWR4OeRjSAxDtd+qe86d+8eMhba9mcbjAHjO4d3yfdZ8vUWFbyrPsSFsMtpebsCOdBXdrYoU+moDGBLAbO+q0xv5p1Rg0dTPUfTkS60vF1BnWKH1S/reGs7uTh1vqAknEjkKE4Yt1czFWMEsIZ6r1cHACgWAUDswdHF+eXydgUlylhZ7QCgraW5JaUw6Dyz54F9fLDzGA/c+3W8IwGQRYY3796hg4MD/SNtAZnS8BBCgLG+Gg8P77x7t0EJpD64IORmj0lwCAMaccA1YR7Kx/XiNgih+8NU3GD4TznehVDACYLBFunp7XginOg4JW8Ip+eSii1EAMR1GxrRgNWOEMdLC/taCj7PoeaBad8gJjC2bb7FPhyEEZd+UaGAfvZqtfmrjUeHBHfu3Dk4OHi3wfCzV38Bv1L/dcPKZlsWQovjFUi1iIODOxhQ4SDVtQTWQDk9wd4l8d5JcAgFC3GApCq7J8w3z9rmIATBVnFj1HEoblDAOp5FKFhe3jZ6ymKxGHXqc9FBNKDZJ0QARRnVYdjSYxX09vJxpwZQbJP5NBM9WPPsRogIOA9u59FETDAjkGIIlTDC6vf16zcI/cHf+0f/tvhbf/yTn/zk//hbv6zv/RCgP/z7X//xvcd/+md/9mf/12/+slGQ0vis9PrNm7dvt5kPqe3xDOQ5ezncYBAfEoILS+Lw8BBjTGhQG4yolFtDiT3lpxALednKHG5IdC0ZnWxMSkoG3rx58/bt27dv37hEH16/eVtAKX6m9UK+nHLsFFqsjr6itkgxUSgK8uWUY/dA1uxvGtyeQNnJ7s/ocopdmSIKoSBHctA+zqKDgsuKQoiVeOf9MSpd0JdTOnwel15CK1MwbYYlFLjZjID9tRl7LwghUm6StaK0JYc3NsV18pWWSGZE9yqWcVGWU7iqOkGRRC+FR5Ki9HnavAQiFJihla3h++aIcFC6IdUmRBu7TXHjUaFg+Lklr9hrkXPC2JKU7E7ffPBIulYURVFIcqGL58jBnCFztU2XXSzG421BedAIL+PFYvHTn/70p7/72zyHXFZU4UH39376u3/7l/HBnTvkY9SppPzxP/419ED4vZ/+EzJ2m1eBFEniuhozutnLJorts31QLtOrljtTWsvH9eJ6Xawf+/j8ygnjp5/Ck08eVqvVh18+g7Ouy+3DnGK7HrZIhq3Nn4sBdEbX+rLk+yMRBheVSuWvfP/7/9VvPful//ELDlFW1N3DO3fuHOKf/as/+n9L9eMywniz2WD8679aQ//3v/2Xb9++izBR8YOynJJguYCDHmcyXhbYBAEbbHca4ylBbo7PH9cAao+fP1cUxfhcSCUUgIUmaCKYOIgGze2VJ8uylgVrdYmiAEJUEiVpvFiMJYHcuI0bPNfsk5u+cq2nBVhcDfXco9VyUW/maz1TF0DP3BrI3usJIf6sDcMLjUiyefGdJEiqiawR4tpQJ8LFENpnhPByVAJ5Nl0CwOvXb+Bn02//zv9GPtNbVtThnQ0GVECv/+O/+8Nn62Ltv72/2bx79+7dr9VrIP/r69c2Z3bO7KI/nZwsl4hAiD8TS3OR3DUvZo1jHiHSS7M/apNE/SDKDnaH2UQAFqGA3a+daGBMxuxqCI6Ea5YCCACsrk5bQ6i1S4NqVZRr5CIOpdzhbxKsJ82oYqv9F3HH9aI8m05nPtLGdaKK80qIcm1sCS/L2xXUOtd9gRYfMvHSAenViJamewNZjBNLNlbUKzaWaz7NzV6xftTkOISxOhEkPZnVTiiIQBAIANd+2USD5c1cv70aoCqAAADJsF7ersBanteFEMFSsqCCrbihEfXs1V5JGe4pAFlPvlex/lYUpyQxxpPzlriCUlscjRTlT3/vf/116wH6O4zpPWp5M1/XGs3tfcGrC9b8JIjw6oOBQHLwVvVOb6QYNRgQshcviGUd+fKz7FI0YfXqZywLy8uBfcOHeGGs72K3RBC3fota9pr1+JhiU2B+d3oC4qivbXrL20fVy5XP9ycAAFClE/OzvVB4tA0v+BQdpcUGsToRTk6In0/XtX/4T36dLBuE+G8Xyk/+5Kd/9vz5n/3pb/8AAVlRGKszef0rjZPtfcFh070lKEJY8EXQMMc9wm9PdYIDx0sj8ezRt19MMIblK4NQYImuhCwsvHXYw08GkcHbwvRq2BmdNbY6UX2xvRJbJxMVABAvKR1XFxnEBGPshcKD72E1RPUL2olfTp/Jjx9/9Kgw/W6zuV8qQrG9ZRiV7ruxOJjzgzCenFcn4O81wzaf5aMSrJ6pet1j3cKy/6/l1t8scYXCvwM4vPOHX/zlPzT2eId3DgBg825z586dF/9+hX71qHn/L9m42cYFY9iMfsWGs5DSZs+sjGCGrnChEQo+/7S2nv/YyvaxKlOQPXdXU7iwExBertZQuse87W45Ak4ig88SLuT9vlYz90tRAGH/3IMQ8c3zp35kQv0AIa55r0S2mtoms1XdCva4Cq5gPLkaQrvX10LbZR/FN7zA8VKvDcMfTgEAcd1+n+f02MznH9XgL16pG3xXiz1sM2KN9yiMofAvZfkv/UrH98lKHyHVB4MCq9IVaMoIow4MW+ffbbRiAJpkhaI8f/q4vvrqy2+Xpu7syhSkBdqjxWKh9Bq3VgLC5oX0RIb2U0tkz2TKQiiY6v2a3zGctdSdWJoo44ZyB9UfKhjKHaQ7uuKGH2DHu9Pz508/rc+/+vLbF5sNNA1dTOLETN7ep/SiKPr2jbSq0gmpLrBYLJRRHYaDmyXzSjCXdim2R6bzBUastdeBQetUerEBAKxeXs0+6vU0P+sw/PTv/+Fm8862lnTjCAAVDgqv/+OPZnKxaKW6GfYJiP+7ivXlBI0cmYBezNW+lu4eHm4wpT2bCF/yP8f/3971xbhxnPdv9g/11qBpm7zRlBxDpAIUyFFobAdi6CsQIY5IS2obFzmFcC6oD2jdkJfaLS6orRUMm0Xs+kinKHwGcqpZsy9GehcydnpBezpTSXy2xfNDbJGJIYWh+xLASV9jkrvTh9ldLndndpfLXf654+9JmlvOfN/Mzu7szPf7fnP4iE6HriCIZ2cuwSjTCWl5Z/wzJhCMbmcQns5K700c3V5v0ib04ThqY1IfnBRGtzMIT2el9+Ywws2oTWnMnmeChksihu8EkDnmgBEyGQUS16fDM0HDRMRg2em+/knl6XaJYZVN5vAMN6Pm/e3ke1yfe9goMlgjSgKN5tJjVvv/dRfA6kvvURU0WAogwUFTjRFEWt79wwTHUZvSxd5sYSLEDZaCBlUBJCCERBHLOtUAABorSURBVFHgeUUhtxlWFJkXxJlI6hAQxhcVQSUssAgXtvWYFRnUP7GVHXIMnSV6EwxlhxhJW27gX2ghoRTihi2RhE7c6LvgnqBhUdBgKoAEAD0pF0lsp2bkx8o45cmmDWN9O1EJC0PBAxGDqtBhAxaBolE4L7Uy+WwUofR6OdOSLuh5M6nEDRuM3g/AUtAYXgHEG3TZGD2ncbfb47WMD8JhX/WxMM7pRCEsjAVDEEDsCRTVVamVKW9tSYmaNJAFlkbcYIPZD0MRNGxhUQDxHRhjZFZr1uTJju552lGIivBR2aGyUVouZ6C0ZiLbNIubtfpyNro5qq0+wawA4jswxgjRnsUkuhtjMRSalVAGH3EUtiJcZ6YHlUChLiMJDO8KFMvlM61SCTJ5S+KE6kYJMiuLo9qK0Gi73mR5p/lLln4BBV9TX0EsFaYjgklPJ3vChZWgQWBRZBiE6U9sIoalfjtlB/WTabVQOC+1zDJnZuKGvV8MIJRer5dHIWjYKID4C4QQYIUXBFOyLjjaoR4Tnk72hAsrQUMtpykyGH5iUnYYUOgwqhhS62cpO6TW+59M1VWplpBMe9Am4oaNX2wMQdCwU9CgKYD4DD18TXHeeAiFjsru+SEnaKBYbqscmYAc2OGCKAqqQBnqb+WRrJEYkEn/IhQSFRkjQ6G15LDiKGxFzOEdIVFUlP5REsYyL4gch7qdjk6pkJ1y3XU6XVHgj8J51KS/neaYYvh4UEu+tQ79eZTbxd6scH7GU+d0spX8ZXZRV2jaAg9sFMqoPxQFnvyM41Cv2x3RTnvLJ1inq7dTcJyfWHbLR6KEjZ0uiRvWfNbWOn3sjRFznQ9UZWvVsHm6USz3yv4zX7LQYPWDWjj5SKGffs/BfnUuAdLnEstORxjiew2Z1q3/cOGvQ0OeRnnCi71G8UI8HvdCxBgWIyhoHBHE0gNcD8xSekEIAXzp60uR6w8tuIjh6M8lP7YiUiuZyN6Sm3a9YUTCy5gyGU28TmoqUBuih02d1n/EBpOUj+aERxhcjrpXjtCBYrmnL1++fPnhu5yGptPpclz0+B3wq1/+3LFaUeDxyXPPvvLW2zfefnN/f7uQi6rNZbeM6ZPcveXMWU41DHUvGSOct3MDpyxGwku/qmjKer1FMUTtZ7dvpyDYTQHVCRCNxfxk1FntNJbEctvlJGwuxRcWFuJru5GzQUVwO8JzfyIUy+aTe6UaGG4jzwe1nU6XZHoUBR5D9JEnnzj+v08tqYoemfJ6CmOs3Cyc7weeLEg1GDF1nkvfEYpl8xJ5v8Xja3vJ/uGhlfBC7iXW9QCqVsgCCcTGGMa52KMqTdhd338AbOdy/W8MqvIFqMeahVxue6uez+fzemwBm7hBJ3oAAKTWjQ1o19MIJoNKEyT7et9+lp1acdaQDZJFDOm7MPJX1onsOpWoEs3mk63N4m3zAJx45JlX9vf333hjq3ix3/nbB/v7L10Kw5nH9/W3Sigkho79sW7/K8+eO4nJ/t9dx49zrf/eIiHFO3uURT2K5ZYT/dR5g/2QM7ZL8vglpLrxbWZzX1H8JSIiak7FBkmR3f+JhfDicL0F41MftFGaoLabWi9nWpJKg0v2g3RsFTcSycjVb52+eP78+fjShra0q67G4ybihg3Rw6qgof9KJ1ZcPX36CiFWsHOdW+yMaeVSoiVdOn369KWrRr/S62UJro6irEEdNUMJnaiCUHol09pcNcciYXwmc6J2+Z577nnoqeuRx8n1JH/+3fc8VG7D9SfvNn7D3P9PVyWuROy/HnniyUdOAiDEvfY/r+PIYiqGEEnV3269b7IzejYZrl3Vg1VS62UpsictxRcWFtZ2gbzsjfpRNSlubJfcV/F4/PTpS4P31XDEHIBmsThcQBZJ0GlkPY9PfZCtNEFp16pwof3JXnGjvfditYExQgg3Gl59YSloWIkVroge0Kw+f7UWTn7hFMep5S/+gNj//FXVL4574L5Eu/Ritak9BYdV1jA42CTKEdAsXoivVvo7CvR+S61LIFGjRtovvfD9d3u93nvbhc3X7Ykt3e4X70v8SvULN57bvB5Jnj0l8N1Op7pKksnW6/VysiV96/mfGw1GKL2SCdeuVcE47mtF8rZvVAoFpyCpSiFXrKpvj+evGceL5m9zZ6+txVKiWHY5QQgszPuEcT2Z3gRL0l5EYz2PLyoCpXNby5n+KZeB+EBB9EQEWrvWpz6r3E8MQ+hgwdb+a5Ty4xEIJ16+QSWG+ASKXyhdkCKlpfejMT0iMhqFBsnz3/rlUMQWdMfn/u2nX+V4BBgAoF3qdToIxbJb5cje0kKugVAslc2//ByKrxpYj6nFRLt0qWqoZ8jxZd9XFH8xbhTXSpF8+SAD0K6V9mqQtCOwuLm+USmsnUiWF1NQqVCmk75D6uM+gRulCeP+DGIoOLCUHeyqCvDIFTPtMZRjjJFuVfN2C5LHT2JokhKtosbtFtSunv6mnrrdBIRiUWjavJ2snhpLEIAaaG/ptw8g+fTTCYwBwmFFgSeehk9d/of1LgBErHYy0bzdwrXNux/7ASASgqSaHRv49qju7C2X70ujagVjjDF53rf3NohfduPOgH5fXag2AQBS64b7iu6vruQCALHcdqa1qyt6AO0+YV1PxZjUBwHATmlCI0ro7VoVLjTDnJQv7HbhLJwOB6IHE3qNJqUJFEsTQofJzm98TbVTL48CQDQ16Ffi8nPnWMoabogb9juQVKKK+MNHL/7Zn//Flx988MEH//KpHwNcf/IvHi2+J4siT67X7bTfeRP4V3drZx5/5twpnut2On37ychqi6XU2WS43fqFblX0bDLc3ttpmsc9nyX9GUvncs6pY9otaGKMjf3J8hcAYrmcXnneQGBh3fPU642KMCjWLx/TYg/jykZpMS/VMxJAuybt1SA58NdVaXFLqh9I0C4tEZXi6urSia1yuS5pL1n14urq0on1fLkuAUC7NkC4sDdgVVrcKtcz0G8CNwqbtaREuLc1ybAbMQQahfNLUNANKq2t2tvZ9wvapdKAX9C/vrS5Yfwsfr/VbkdaXpQ1DCBEFSkM0K5J5wsNEg2kn64iGXie4xAAJrty5utZ9ZKD2lcfe4h77qmX3njCaD/GFdINB2QV265Ja0V9WqZWMuGapKfcMPaDVCZ3it6ddNjeV3T7m8XbK1uktF2SlvRvM4TS65p8XaJel6AmxVcrGNOvb+7snl0hlQO0a5JKhJmNmD2ULtSXW0sXigERS48mQqKgAGcKvWPRLnQghEIhUe4pJCrP36AHHzGR3PQTjtmzqROlc4U00fyMuZczm8M9WEEPNoNMBqvT6XIckIPaaZ5LMMId662GKeY7VXd21/MHUhiGWdTNMRSwoohiqNulyJN1O51QSMQYdRmR41iRCaVw2ubSBDEbi705goD2bjGzLUSBV2BQnhhx+n4dGTVR4DWixpTOpeld7MHsxOwFDZdEj5mAJjs7AFWdFhDH8zzPcRy5pxQinw7aqHW6PY7jpnYugR93l4ca5mzcITHLRI9QSBR43kiJ7fZkWZZ7hvQPGGPE8b1el9DXu90ex+ss3IF7q9vtTu1cmhSO9HSyEjTUcFk97zmJwjXEnlKJHtMGKvFEJ9LaPHE7nW63159dKH2x887F3+kz6giw00fEEZpOCMXcETfa7cgiuRejZ5PQHpXZ6LrdAOvX5xIgTu7RVWht0CfhDrT7SXzqk/hQrHv9wvgSg8XShbyU0I691nIk2mgwcZd+vtSMZrfKkb0SJDMJcgy3tlptYEyut5YD2U9fz2cS2k5gvzy9Xl9slSLJDEAbwuGWFF+tRrNb5cyA5zVpIVdB6UJdglIpkoS1C8W7yA8zyb2lC8UmpLRjPvWAz8YvVrsVjBGKpdbVX4zHr7v//odagof0s28+nmiXHE/w0KnPd8p/Yrwi9JMfCdl3gePl3l29g5Oo9PtyBqANOPx/wsIWH0t0yn/AL2xx6jhe/OjrvxHP1xDGCH1SLp7rnfk4AKDrrwnZm2i63+2jYFyCNCi9IkX2pDihYe0unnXBEmUF2NPLnYgbm2vxCzpxw5agAbd39iB5NppaTNR2d7RCqkKHk1/mdoGt0BGQX/pcAsTJPacUXrqzN18XP/PMscu3AG4JC8+GPvNM6Js3DX+/Uz6+Lyxsig9899jSTzjb6SEXMz3YFxeePbZQ4u+4v5f7hEsbZhHjXOyFkydSsRjChGTn/IhiETEo5c7EjQ31oY4bLoIrmzt7kMwvJ9xlJLbxy9yurUKH/36Z1njuFTpComiWEsQY9480f8u/oL5k8M1f29SD0Kfxmd8KL9xEGGP8a/67t3AyeojXh2OaThhXVpdKreRyvlx3LTLJIkrQytk0Pk9oFjdbYRf5vYf2K3oiAmE1HbRKB9YRgF9k24H2vRQK6RqcZhHOUIikqpQFXjCUYGRJbOSM2B8q8PFe+dHOO4913nnsoyt3evVkNjC+qAg90D2WLpSllXTRMdExPcCeXj5kYL+ztZXcQgUAwHHeD+dX83YLatYkz0wCxWh+dbo9URQUDLo8DCF63BJ4We4zQTCWeUHgLLMFK4qIeUEUFFkBdmI9OzQ+5OAW0r6pDj3GJ+apB7QPwE5pgkXEoJQ7Ezeo8EjQ6P+E6RcDNgodAfnV7fY4UPO2EqLHf9TXv4gBcZye25Uc/usHtZ1OlyMbebc+xMrv4ZMI8U5zqfEhB3fKuU8AADr1afnrd2r+voeu39krniILPJz+vLz6aZd9NYsYF0GjUdg4W1AD2tu10pL6eNaoGSrb0SbA3hCzRy/3QNzwQNCwED3oftmATcQI0C9RABBERX7/gw/ardvXXkX9QPJutxcKiVhRFG1GdTudDkku+e4e/PTO35WyAADXXwt94z12t7wnXD7ZuZLpZADat4S9W/o48tkSFM91D+4HAHT9Lf6Fm6xKDgGmVEGDpXxxWBUxfPFLFEWsEUu7XfPHkijwGHEcYJlo2lq+gvS8xx4OpuYgcLvYs2bJCSLb0egY3arx+OVvKyFRFHgeAyCEMMaKovC8YJJUQpy26LNo2uoXkFWf8YdB9Mbs1unYike+U0DZjkbEpFguk22F6FxwvCD3er1eT1EUQqk1hdh1Ol2O5wBj04QZuIBwcbXfTYTnNrV1umnF1WLP+Ht9OWEqmQaMbtV4/PKxFV2uomdY3WGMycrNqnMRComKAj3Gco6cU+mbeEH0xuzW6aYVjznKrf/wBkOmZx8UNGysckusiGa36utpkhR4BNj75VfvqVUg1O10THUia4wdAAB0Ol3WXKLW7Zudg3XGslt1NUd5sOPuY51uWvHOd/KFrUSS//mooMG0ahhixRj88ovrhQ06F8Y6HRXU1WNcU/7xgdAHP+00NXJzbOPua52OrRyViHLPChpuMFkFDeoAE1660TOEYkZljXMACsZw/7frB+8Qme1QSMT3P/PW97KfsuwKjhMmO0cfnXHC+3Qadi/FzT6JL/tyHHfKSFgIeq/Pm4KGn75rNKSBGjDGgBVZ5nUIAgcD0wtpF4YzKxdCoiwriOcRuA2T9ZF4EsQYTWT/0ON0GnYvBSGEYuns+pb+ED/FcayqkJq92ouCRja79Z83ntYVNBBCCKXXLct09woaD5ziAADFssMqaDC7IpbOFbbr9Xq9XjcoRKBYel2TPNomKZwI+noSg+XE5X9+++23Xvnbk1gRxZCogedJIodBYEVRZCSoe3o9EvqAAPDrr79+JvNIlBeEnqwM9L9rpRKWwojur41yShD7sZPaPxzfYi/1hfvg2rfihJgAmZefc3iKj6KgceHCBZ0QgXFlNR4/ffqKNwWNyw9TFDQ243HJSUGD6dfZRdIPRsUHhNIPX47sXTkdj8eNRA9HYouCQZ0UWCHQ1n4IcRzHqyrRulA0VhRR5MlvO91uT0Ech669+O8o8aemNd5QxBBm/7hTTjk08Didht1LwRhXiqvFSgMTYsJuDSLHY4OZYoz/GFFBA2NMCAue9nxMChrH2QoaXlAp5ArfvwkARiURjDFAOHk8FY2ChejRJ4D812P/8irH66dGhHDxmfPr7/Z66psYcQgBIE6We73BXA6dzrv/+uCXv9NUlMZ3zJ+RzZ09yDx8zq7/XRBD6P3jqJxiGiOMG0QBxH0egeB2nu1bscJ7zN7QhqayJqUD6s6J+i/PChqMOod555vfNv5uGlEVH7Tkw1/LZy6HoV0rreVI2me1fDmfkcLQ/vHL/7habOiRdcZq9aiikMgc0063Jwq8QnGmWdys1ZezJze1Av+UStwop4zev9Yagjg2dKxzfGzcdSnT2lTFDwcprTQ0b7eosd6s8klhSHts+gE3Crnz588vLCxJrURmRV/UGcvPfPWvUggB9KO/EaJtBjDiHuxQ3ShBZmXRo18sDD3uM45xbpQ7K2jo8K6gYQffFDT0/R2WggbLLwCg9gOL6EEtVzPfyUro2EWGsob6GKXuRFG/pInSZiJh7udTHMedemC0pNZmf/tW0ftnhjE+Nu5GqZWU6gcHB/X84u29mumvq1ItItVJEi5SWF1dKkWkcr1ezy+C4frq6lKJqNmVpWRrKAWNVrI80ARuFDZroHJjC2n7GmhAQBQ09mC5rLrW2ukzeK1+sfoBNwobsJiv1w8ODsrL0CewDJa/9JXcq4ABaXm65F+0P/igXRtU1kBkZwJbd6Ksh1FGNPUvVADQ+vnlGzduvHw52briLam1zbgjhKjjPtOYUoKGCVOloDHZeMWQKMgYyb2uTbp98ieO5/VAPoyxKR7PDWYlvm56ML1REVOroBHErpEHaCmR+99ROkjAniLLvCCIJJZIEOThCeqT2h+bXcwVNLxgkrcCQkjBZGev25PJTp2+1xcSBQUjos6EMcaKIpPfcMiaCsINJrI/NruYjcXeHEaIAo9R/z3TX/VxgDF4yTc0h0+Y0sWev8SNw43+qk/pz6XDpPRhxJT7NaXTyXfixmECstCx9H37/nfULCt92GG6/ZrS6TQG2BABxk+4UJU7tFDX7Zztrj1CyHBQSxSZOJ437kzgRuHLn33sNd7jt7HRnu3tQtpdJ/hFeLGpZ3QFk0AJIBOYTkErSowIR8JFYParwbjxpc1WRrI5hzFSA1V1M44jOxP6jBIEQVYwolNyh7NnbROWy1vj53HNIsY3ndiB/QbeRLpgFFNi1NOnLBiJA1oTB4412BvJIlxQ7Qc2kYFFrLAhXBDgRmWj1A5H7rL1FwNE/267/sb+m2+9/b2/+etvE6+7PZnnzj375v7+/ptv33jui4Ygcaqdav8PNmCyp1HJrZUgs5KysceG8MIar8HynIt69DfmoCSXV7+CwJjfTvTA/qHAVqDwAw6EC7oihpXIwCJWuFESQbH0SrKfH53qL0Lo/m9f/UrryYfuvTf+le8aCSwArz762bvv/dxTNawYq2UTLgYIKdIKJeaHRPCRO5Vqjw3hhTVeqfWyFNmTluILCwtru0AWATb1UBVMRvTLd4x5Og2pZGGBrQIFuFeIAE9EAAdFDDORgaWswSpXn8f18jJsLuUq2MZfxKXuO9Mub/7wZx99ZCSwhERRwSQrZY/ZbxZFkkFCiplA4b7/3V+vlq8VySqgUSkUKt4yTw3tl6dxd4spPsalInoiAuEESRdMQAv4Hx8YRAYTsYJFuNDLAUBXYYvltsvSSrq6WsGY5W/nxB0R9Kvdn5nPlzBWdS7Md7gd4WIY+uOw/c+63i8CiF9++YRZm04MBQodRCHCezjSsIoV7OtZyhqOihvN4lopWV7ORiuFBlNxg9FutzfwUvLu1yDITdvAGDn1P63dIewfGn4rp4yISW+U2ylosIgbLAUKIAoRNMKCWzgQLmjXUwkjQxEuLHU2ipu1cGYljRDLXxaBZRB97skoxJZYupDPQGmjCk79byW8ONifz5J+jqVzuTSyqScIv4IAfToFkQWG2gpAdVWqQaY8FHFDguVyvX5wcJBfhN0do6TZ+612u127NsqC2Eq4sO8NKmHEJeGCqbhR3a1pTxmWv1YCi9FOKyFleGKL+i2XX4bNpQuFhmrnD7556Qqj/6mEFxv7pVZSKqvlxmG0Ic744RcdvtzzlJi98YTQz0rw/0zUSQgsly4+r26TTDSx8PgxulV++TXpxd7Rg66haRafHRIWAsuPpoTAcpRB2YrQiZyBPn6CaGXK6wyJRHMWA2CEEMYyxwscR5eHcYaZwNLQDR7RTh1W38dzbwyL0a3yy685QWNMCImCrADHcd1uBwBEUVAFY+byZIcI/Mc+9jFvv0SxWPreP+K433z4ob8mHUIQGRiOV+cSACiKIooCYAyAeUFUaX5zzDi8qw8CnF1cXMmX656TZgSRV3oaaqAAq7IxxjJNnqz/le+75UH4MmydbqyaTt891OBRfRDIcWQut2YI1hwK1jqprYxY5/hroAKzEghpC/bQsWMjthtEf7ppZXSrghi1Sd0J8529MYH6jeuowjTHbMGj+uDoCCKv9DTUQAVCCLDCW+XJ+u8n/y2fhjxEbqyaTt+91eBdfZCAhAF5C+qh5igfceynoQYK9EmjqFpMNu2GQuLQKZEHa7ApGR3D1unGqiBGbSJ3wsiLveqGVEtI9fr29jxHigrrQS1RTUcAlKU4bW2OLanz5pgJeI8oV2+D1IqUaJektZ33R4jjDhKjH8+5r8FwUAsAgLHMCyI5qO101MMlWXaos9PpigKvWPXO5pg0HO8Er6k5dAr3iQjUNomAzxTCuD8zYjSXYw0hUZAVzGmZVtWDWqwoinkJ4LhrhBACRRHE0FBJW+cIFG7uhPnOnj+wHtR2uz09uRDre4kFrEWyzpd8s4WR1Qf9MyUIjG+Hx8VBrcs6DVldvYbzzREA3NwJ3t9OgeyABYDx7PA4HtSa3jOsOm10MeaYOBzvhBG2ItKFreVEONwuLVWdrz4CsNlXcDmd53Np1vH/apENyA2dQOMAAAAASUVORK5CYII=;" vertex="1" parent="1">
          <mxGeometry x="10" y="920" width="246.06" height="445" as="geometry" />
        </mxCell>
        <mxCell id="TzDmx2nd5fRmSMZ_yycr-61" value="key: algotithmClass+rule+ruleType+version&lt;div&gt;内层key:cardType+cardModel+architecture&lt;/div&gt;&lt;div&gt;value: 算法包信息&lt;/div&gt;" style="whiteSpace=wrap;html=1;" vertex="1" parent="1">
          <mxGeometry x="10" y="1370" width="250" height="60" as="geometry" />
        </mxCell>
        <mxCell id="TzDmx2nd5fRmSMZ_yycr-62" value="构建solutionKey.networkLabel-架构-算法包映射关系的Map" style="rounded=1;whiteSpace=wrap;html=1;" vertex="1" parent="1">
          <mxGeometry x="310.5" y="1430" width="173" height="60" as="geometry" />
        </mxCell>
        <mxCell id="TzDmx2nd5fRmSMZ_yycr-63" value="key:solutionKey&lt;div&gt;内层Key: 架构&lt;/div&gt;&lt;div&gt;value：算法包信息&lt;/div&gt;" style="whiteSpace=wrap;html=1;" vertex="1" parent="1">
          <mxGeometry x="20" y="1440" width="120" height="50" as="geometry" />
        </mxCell>
        <mxCell id="TzDmx2nd5fRmSMZ_yycr-64" value="将所有solutionKey按照自然排序后，用下划线连接形成一个字符串，设置到context中" style="rounded=1;whiteSpace=wrap;html=1;" vertex="1" parent="1">
          <mxGeometry x="315" y="1540" width="164" height="60" as="geometry" />
        </mxCell>
        <mxCell id="TzDmx2nd5fRmSMZ_yycr-65" value="任务优先级是否为99" style="rhombus;whiteSpace=wrap;html=1;" vertex="1" parent="1">
          <mxGeometry x="357" y="1640" width="80" height="80" as="geometry" />
        </mxCell>
        <mxCell id="TzDmx2nd5fRmSMZ_yycr-66" value="delay task 处理逻辑" style="rounded=1;whiteSpace=wrap;html=1;" vertex="1" parent="1">
          <mxGeometry x="110" y="1734" width="120" height="40" as="geometry" />
        </mxCell>
        <mxCell id="TzDmx2nd5fRmSMZ_yycr-67" value="直接处理逻辑" style="rounded=1;whiteSpace=wrap;html=1;" vertex="1" parent="1">
          <mxGeometry x="515" y="1730" width="120" height="40" as="geometry" />
        </mxCell>
        <mxCell id="TzDmx2nd5fRmSMZ_yycr-69" value="根据算法信息列表以及算法包详情集合，转换为路由消息" style="whiteSpace=wrap;html=1;" vertex="1" parent="1">
          <mxGeometry x="90" y="1810" width="160" height="50" as="geometry" />
        </mxCell>
        <mxCell id="TzDmx2nd5fRmSMZ_yycr-70" value="将算法包详细信息和solutionKey设置到context中" style="rounded=1;whiteSpace=wrap;html=1;" vertex="1" parent="1">
          <mxGeometry x="90" y="1900" width="160" height="60" as="geometry" />
        </mxCell>
        <mxCell id="TzDmx2nd5fRmSMZ_yycr-71" value="任务状态设置为JOB_WAITTING" style="rounded=1;whiteSpace=wrap;html=1;" vertex="1" parent="1">
          <mxGeometry x="110" y="1990" width="120" height="50" as="geometry" />
        </mxCell>
        <mxCell id="TzDmx2nd5fRmSMZ_yycr-72" value="通道分析记录插入数据库&lt;div&gt;根据channelAnalysisId&lt;/div&gt;&lt;div&gt;是否为0来判断该任务是新建还是更新&lt;/div&gt;" style="rounded=1;whiteSpace=wrap;html=1;" vertex="1" parent="1">
          <mxGeometry x="65" y="2070" width="210" height="70" as="geometry" />
        </mxCell>
        <mxCell id="TzDmx2nd5fRmSMZ_yycr-73" value="插入数据库后更新channelAnalysisId" style="rounded=1;whiteSpace=wrap;html=1;" vertex="1" parent="1">
          <mxGeometry x="110" y="2160" width="120" height="50" as="geometry" />
        </mxCell>
        <mxCell id="TzDmx2nd5fRmSMZ_yycr-74" value="rpc添加路由消息到EX" style="rounded=1;whiteSpace=wrap;html=1;" vertex="1" parent="1">
          <mxGeometry x="110" y="2230" width="120" height="50" as="geometry" />
        </mxCell>
        <mxCell id="TzDmx2nd5fRmSMZ_yycr-75" value="添加闲时任务到队列" style="rounded=1;whiteSpace=wrap;html=1;" vertex="1" parent="1">
          <mxGeometry x="110" y="2300" width="120" height="50" as="geometry" />
        </mxCell>
        <mxCell id="TzDmx2nd5fRmSMZ_yycr-76" value="过滤掉已经加载solutionKey的算子，没有初始化的、networkLabel不符合的、能力集为null的，没有计算卡的" style="rounded=1;whiteSpace=wrap;html=1;" vertex="1" parent="1">
          <mxGeometry x="492.5" y="1810" width="165" height="80" as="geometry" />
        </mxCell>
        <mxCell id="TzDmx2nd5fRmSMZ_yycr-77" value="给任务的solutionKey添加能力" style="whiteSpace=wrap;html=1;" vertex="1" parent="1">
          <mxGeometry x="510" y="1930" width="120" height="60" as="geometry" />
        </mxCell>
        <mxCell id="TzDmx2nd5fRmSMZ_yycr-78" value="以solutionKey+NetworkLabel为key，存储了总能力集和需要的能力集" style="whiteSpace=wrap;html=1;" vertex="1" parent="1">
          <mxGeometry x="430" y="2020" width="230" height="60" as="geometry" />
        </mxCell>
        <mxCell id="TzDmx2nd5fRmSMZ_yycr-79" value="如果已经有以该key的能力集，且剩余的能力集满足该任务所需的能力集，就直接用" style="rounded=1;whiteSpace=wrap;html=1;" vertex="1" parent="1">
          <mxGeometry x="479" y="2100" width="171" height="60" as="geometry" />
        </mxCell>
        <mxCell id="TzDmx2nd5fRmSMZ_yycr-80" value="如果没有，则挑选有能力集的节点" style="rounded=1;whiteSpace=wrap;html=1;" vertex="1" parent="1">
          <mxGeometry x="472" y="2190" width="187" height="50" as="geometry" />
        </mxCell>
        <mxCell id="TzDmx2nd5fRmSMZ_yycr-81" value="如果还是没有，则要查找可以卸载的算子" style="rounded=1;whiteSpace=wrap;html=1;" vertex="1" parent="1">
          <mxGeometry x="493" y="2280" width="120" height="60" as="geometry" />
        </mxCell>
      </root>
    </mxGraphModel>
  </diagram>
</mxfile>
